<mxfile host="Electron" agent="Mozilla/5.0 (X11; Linux x86_64) AppleWebKit/537.36 (KHTML, like Gecko) draw.io/26.0.4 Chrome/128.0.6613.186 Electron/32.2.5 Safari/537.36" version="26.0.4">
  <diagram name="Page-1" id="d_sv0UrmA0pkKPBzu-4M">
    <mxGraphModel dx="1383" dy="797" grid="1" gridSize="10" guides="1" tooltips="1" connect="1" arrows="1" fold="1" page="1" pageScale="1" pageWidth="2336" pageHeight="1654" math="0" shadow="0">
      <root>
        <mxCell id="0" />
        <mxCell id="1" parent="0" />
        <mxCell id="uDl1SkCYwepjSjY6q5aR-86" value=":Commit" style="rounded=0;whiteSpace=wrap;html=1;fontStyle=0;strokeColor=#C3ABD0;glass=0;labelBorderColor=none;labelBackgroundColor=none;" parent="1" vertex="1">
          <mxGeometry x="2769.86" y="1201.07" width="120" height="19" as="geometry" />
        </mxCell>
        <mxCell id="uDl1SkCYwepjSjY6q5aR-64" value="" style="shape=offPageConnector;whiteSpace=wrap;html=1;rotation=-180;fillColor=#ffe6cc;strokeColor=#d79b00;" parent="1" vertex="1">
          <mxGeometry x="2670" y="507" width="120" height="20" as="geometry" />
        </mxCell>
        <mxCell id="oV0L0_FI22U6Fe_3e3ri-59" style="edgeStyle=orthogonalEdgeStyle;rounded=0;orthogonalLoop=1;jettySize=auto;html=1;exitX=1;exitY=0.5;exitDx=0;exitDy=0;entryX=0;entryY=0.5;entryDx=0;entryDy=0;curved=1;dashed=1;" parent="1" source="oV0L0_FI22U6Fe_3e3ri-2" target="oV0L0_FI22U6Fe_3e3ri-10" edge="1">
          <mxGeometry relative="1" as="geometry" />
        </mxCell>
        <mxCell id="oV0L0_FI22U6Fe_3e3ri-60" value="ssn:forProperty" style="edgeLabel;html=1;align=center;verticalAlign=middle;resizable=0;points=[];" parent="oV0L0_FI22U6Fe_3e3ri-59" vertex="1" connectable="0">
          <mxGeometry x="-0.1636" y="17" relative="1" as="geometry">
            <mxPoint x="-7" y="34" as="offset" />
          </mxGeometry>
        </mxCell>
        <mxCell id="oV0L0_FI22U6Fe_3e3ri-35" style="edgeStyle=orthogonalEdgeStyle;rounded=0;orthogonalLoop=1;jettySize=auto;html=1;exitX=1;exitY=1;exitDx=0;exitDy=0;entryX=0;entryY=0;entryDx=0;entryDy=0;curved=1;startArrow=classic;startFill=1;dashed=1;" parent="1" source="oV0L0_FI22U6Fe_3e3ri-2" target="oV0L0_FI22U6Fe_3e3ri-8" edge="1">
          <mxGeometry relative="1" as="geometry">
            <Array as="points">
              <mxPoint x="550" y="400" />
              <mxPoint x="690" y="400" />
            </Array>
          </mxGeometry>
        </mxCell>
        <mxCell id="oV0L0_FI22U6Fe_3e3ri-36" value="(optional)&lt;div&gt;sosa:hasFeatureOfInterest&lt;/div&gt;&lt;div&gt;sosa:isFeatureOfInterestOf&lt;/div&gt;" style="edgeLabel;html=1;align=center;verticalAlign=middle;resizable=0;points=[];" parent="oV0L0_FI22U6Fe_3e3ri-35" vertex="1" connectable="0">
          <mxGeometry x="-0.3128" y="-7" relative="1" as="geometry">
            <mxPoint x="53" y="18" as="offset" />
          </mxGeometry>
        </mxCell>
        <mxCell id="uDl1SkCYwepjSjY6q5aR-114" style="edgeStyle=orthogonalEdgeStyle;rounded=0;orthogonalLoop=1;jettySize=auto;html=1;exitX=0;exitY=0.5;exitDx=0;exitDy=0;entryX=1;entryY=0.5;entryDx=0;entryDy=0;dashed=1;" parent="1" source="oV0L0_FI22U6Fe_3e3ri-1" target="uDl1SkCYwepjSjY6q5aR-116" edge="1">
          <mxGeometry relative="1" as="geometry">
            <mxPoint x="220" y="425.16666666666674" as="targetPoint" />
          </mxGeometry>
        </mxCell>
        <mxCell id="oV0L0_FI22U6Fe_3e3ri-1" value="dcat:Distribution OR dob:DataPoint" style="rounded=1;whiteSpace=wrap;html=1;fontStyle=0;fillColor=#FFFFCC;strokeColor=#d6b656;" parent="1" vertex="1">
          <mxGeometry x="420" y="410" width="140" height="30" as="geometry" />
        </mxCell>
        <mxCell id="oV0L0_FI22U6Fe_3e3ri-3" style="edgeStyle=orthogonalEdgeStyle;rounded=0;orthogonalLoop=1;jettySize=auto;html=1;exitX=0.5;exitY=1;exitDx=0;exitDy=0;entryX=0.5;entryY=0;entryDx=0;entryDy=0;dashed=1;" parent="1" source="oV0L0_FI22U6Fe_3e3ri-2" target="oV0L0_FI22U6Fe_3e3ri-1" edge="1">
          <mxGeometry relative="1" as="geometry" />
        </mxCell>
        <mxCell id="oV0L0_FI22U6Fe_3e3ri-4" value="prov:generated" style="edgeLabel;html=1;align=center;verticalAlign=middle;resizable=0;points=[];" parent="oV0L0_FI22U6Fe_3e3ri-3" vertex="1" connectable="0">
          <mxGeometry x="0.0857" y="-2" relative="1" as="geometry">
            <mxPoint as="offset" />
          </mxGeometry>
        </mxCell>
        <mxCell id="oV0L0_FI22U6Fe_3e3ri-16" style="edgeStyle=orthogonalEdgeStyle;rounded=0;orthogonalLoop=1;jettySize=auto;html=1;exitX=0.5;exitY=0;exitDx=0;exitDy=0;entryX=1;entryY=0.5;entryDx=0;entryDy=0;curved=1;dashed=1;" parent="1" source="oV0L0_FI22U6Fe_3e3ri-2" target="oV0L0_FI22U6Fe_3e3ri-5" edge="1">
          <mxGeometry relative="1" as="geometry" />
        </mxCell>
        <mxCell id="oV0L0_FI22U6Fe_3e3ri-17" value="prov:used" style="edgeLabel;html=1;align=center;verticalAlign=middle;resizable=0;points=[];" parent="oV0L0_FI22U6Fe_3e3ri-16" vertex="1" connectable="0">
          <mxGeometry x="0.0581" y="-3" relative="1" as="geometry">
            <mxPoint x="-43" y="24" as="offset" />
          </mxGeometry>
        </mxCell>
        <mxCell id="oV0L0_FI22U6Fe_3e3ri-19" style="edgeStyle=orthogonalEdgeStyle;rounded=0;orthogonalLoop=1;jettySize=auto;html=1;exitX=0.5;exitY=0;exitDx=0;exitDy=0;entryX=0;entryY=0.5;entryDx=0;entryDy=0;curved=1;dashed=1;" parent="1" source="oV0L0_FI22U6Fe_3e3ri-2" target="oV0L0_FI22U6Fe_3e3ri-7" edge="1">
          <mxGeometry relative="1" as="geometry" />
        </mxCell>
        <mxCell id="oV0L0_FI22U6Fe_3e3ri-20" value="&lt;div&gt;(optional)&lt;/div&gt;dob:wasInformedByDeployment" style="edgeLabel;html=1;align=center;verticalAlign=middle;resizable=0;points=[];" parent="oV0L0_FI22U6Fe_3e3ri-19" vertex="1" connectable="0">
          <mxGeometry x="0.0348" y="-1" relative="1" as="geometry">
            <mxPoint x="49" y="19" as="offset" />
          </mxGeometry>
        </mxCell>
        <mxCell id="oV0L0_FI22U6Fe_3e3ri-48" style="edgeStyle=orthogonalEdgeStyle;rounded=0;orthogonalLoop=1;jettySize=auto;html=1;exitX=1;exitY=0.5;exitDx=0;exitDy=0;entryX=0;entryY=0.5;entryDx=0;entryDy=0;dashed=1;dashPattern=1 2;" parent="1" source="oV0L0_FI22U6Fe_3e3ri-2" target="oV0L0_FI22U6Fe_3e3ri-47" edge="1">
          <mxGeometry relative="1" as="geometry" />
        </mxCell>
        <mxCell id="oV0L0_FI22U6Fe_3e3ri-49" value="prov:endedAtTime" style="edgeLabel;html=1;align=center;verticalAlign=middle;resizable=0;points=[];" parent="oV0L0_FI22U6Fe_3e3ri-48" vertex="1" connectable="0">
          <mxGeometry x="-0.04" y="-4" relative="1" as="geometry">
            <mxPoint x="13" y="-13" as="offset" />
          </mxGeometry>
        </mxCell>
        <mxCell id="uDl1SkCYwepjSjY6q5aR-113" style="edgeStyle=orthogonalEdgeStyle;rounded=0;orthogonalLoop=1;jettySize=auto;html=1;exitX=0;exitY=0.5;exitDx=0;exitDy=0;entryX=1;entryY=0.5;entryDx=0;entryDy=0;dashed=1;" parent="1" source="oV0L0_FI22U6Fe_3e3ri-2" target="uDl1SkCYwepjSjY6q5aR-115" edge="1">
          <mxGeometry relative="1" as="geometry">
            <mxPoint x="220" y="310" as="targetPoint" />
          </mxGeometry>
        </mxCell>
        <mxCell id="oV0L0_FI22U6Fe_3e3ri-2" value="prov:Activity" style="rounded=0;whiteSpace=wrap;html=1;fontStyle=0;fillColor=#e1d5e7;strokeColor=#9673a6;" parent="1" vertex="1">
          <mxGeometry x="430" y="300" width="120" height="20" as="geometry" />
        </mxCell>
        <mxCell id="9Oqew1JKMZColQfG4jG8-2" style="edgeStyle=orthogonalEdgeStyle;rounded=0;orthogonalLoop=1;jettySize=auto;html=1;exitX=0;exitY=0.5;exitDx=0;exitDy=0;dashed=1;" parent="1" source="oV0L0_FI22U6Fe_3e3ri-5" target="9Oqew1JKMZColQfG4jG8-1" edge="1">
          <mxGeometry relative="1" as="geometry" />
        </mxCell>
        <mxCell id="oV0L0_FI22U6Fe_3e3ri-5" value="prov:Plan" style="rounded=1;whiteSpace=wrap;html=1;fontStyle=0;fillColor=#FFFFCC;strokeColor=#d6b656;" parent="1" vertex="1">
          <mxGeometry x="270" y="190" width="120" height="20" as="geometry" />
        </mxCell>
        <mxCell id="oV0L0_FI22U6Fe_3e3ri-7" value="ssn:Deployment" style="rounded=0;whiteSpace=wrap;html=1;fontStyle=0;fillColor=#e1d5e7;strokeColor=#9673a6;glass=0;shadow=0;" parent="1" vertex="1">
          <mxGeometry x="687.5" y="159" width="120" height="20" as="geometry" />
        </mxCell>
        <mxCell id="oV0L0_FI22U6Fe_3e3ri-11" style="edgeStyle=orthogonalEdgeStyle;rounded=0;orthogonalLoop=1;jettySize=auto;html=1;exitX=0.5;exitY=0;exitDx=0;exitDy=0;entryX=0.5;entryY=1;entryDx=0;entryDy=0;dashed=1;" parent="1" source="oV0L0_FI22U6Fe_3e3ri-8" target="oV0L0_FI22U6Fe_3e3ri-10" edge="1">
          <mxGeometry relative="1" as="geometry" />
        </mxCell>
        <mxCell id="oV0L0_FI22U6Fe_3e3ri-12" value="ssn:hasProperty" style="edgeLabel;html=1;align=center;verticalAlign=middle;resizable=0;points=[];" parent="oV0L0_FI22U6Fe_3e3ri-11" vertex="1" connectable="0">
          <mxGeometry y="-3" relative="1" as="geometry">
            <mxPoint as="offset" />
          </mxGeometry>
        </mxCell>
        <mxCell id="oV0L0_FI22U6Fe_3e3ri-8" value="sosa:FeatureOfInterest" style="rounded=1;whiteSpace=wrap;html=1;fontStyle=0;fillColor=#FFFFCC;strokeColor=#d6b656;" parent="1" vertex="1">
          <mxGeometry x="690" y="510" width="170" height="20" as="geometry" />
        </mxCell>
        <mxCell id="njyGxfNsTSV-C6YQ91Hw-6" style="edgeStyle=orthogonalEdgeStyle;rounded=0;orthogonalLoop=1;jettySize=auto;html=1;exitX=1;exitY=0.5;exitDx=0;exitDy=0;entryX=0;entryY=0.5;entryDx=0;entryDy=0;strokeWidth=1;endSize=6;startSize=1;" parent="1" source="oV0L0_FI22U6Fe_3e3ri-10" target="njyGxfNsTSV-C6YQ91Hw-5" edge="1">
          <mxGeometry relative="1" as="geometry" />
        </mxCell>
        <mxCell id="oV0L0_FI22U6Fe_3e3ri-10" value="ssn:Property" style="rounded=1;whiteSpace=wrap;html=1;fontStyle=0;fillColor=#FFFFCC;strokeColor=#d6b656;" parent="1" vertex="1">
          <mxGeometry x="715" y="360" width="120" height="20" as="geometry" />
        </mxCell>
        <mxCell id="oV0L0_FI22U6Fe_3e3ri-22" style="edgeStyle=orthogonalEdgeStyle;rounded=0;orthogonalLoop=1;jettySize=auto;html=1;exitX=1;exitY=0.5;exitDx=0;exitDy=0;entryX=0;entryY=0.5;entryDx=0;entryDy=0;curved=1;startArrow=classic;startFill=1;dashed=1;" parent="1" source="njyGxfNsTSV-C6YQ91Hw-13" target="oV0L0_FI22U6Fe_3e3ri-8" edge="1">
          <mxGeometry relative="1" as="geometry" />
        </mxCell>
        <mxCell id="oV0L0_FI22U6Fe_3e3ri-25" value="sosa:hasFeatureOfInterest" style="edgeLabel;html=1;align=center;verticalAlign=middle;resizable=0;points=[];" parent="oV0L0_FI22U6Fe_3e3ri-22" vertex="1" connectable="0">
          <mxGeometry x="-0.0118" relative="1" as="geometry">
            <mxPoint x="1" y="-15" as="offset" />
          </mxGeometry>
        </mxCell>
        <mxCell id="oV0L0_FI22U6Fe_3e3ri-23" style="edgeStyle=orthogonalEdgeStyle;rounded=0;orthogonalLoop=1;jettySize=auto;html=1;exitX=0.5;exitY=0;exitDx=0;exitDy=0;entryX=0.5;entryY=1;entryDx=0;entryDy=0;dashed=1;" parent="1" source="njyGxfNsTSV-C6YQ91Hw-13" target="oV0L0_FI22U6Fe_3e3ri-1" edge="1">
          <mxGeometry relative="1" as="geometry" />
        </mxCell>
        <mxCell id="oV0L0_FI22U6Fe_3e3ri-24" value="dob:usedData" style="edgeLabel;html=1;align=center;verticalAlign=middle;resizable=0;points=[];" parent="oV0L0_FI22U6Fe_3e3ri-23" vertex="1" connectable="0">
          <mxGeometry x="-0.0571" y="2" relative="1" as="geometry">
            <mxPoint as="offset" />
          </mxGeometry>
        </mxCell>
        <mxCell id="njyGxfNsTSV-C6YQ91Hw-9" style="edgeStyle=orthogonalEdgeStyle;rounded=0;orthogonalLoop=1;jettySize=auto;html=1;exitX=0.5;exitY=1;exitDx=0;exitDy=0;entryX=0.5;entryY=0;entryDx=0;entryDy=0;curved=1;dashed=1;dashPattern=1 2;" parent="1" source="oV0L0_FI22U6Fe_3e3ri-21" target="njyGxfNsTSV-C6YQ91Hw-8" edge="1">
          <mxGeometry relative="1" as="geometry" />
        </mxCell>
        <mxCell id="njyGxfNsTSV-C6YQ91Hw-11" value="owl:DatatypeProperty" style="edgeLabel;html=1;align=center;verticalAlign=middle;resizable=0;points=[];" parent="njyGxfNsTSV-C6YQ91Hw-9" vertex="1" connectable="0">
          <mxGeometry x="0.5714" y="-1" relative="1" as="geometry">
            <mxPoint as="offset" />
          </mxGeometry>
        </mxCell>
        <mxCell id="njyGxfNsTSV-C6YQ91Hw-10" style="edgeStyle=orthogonalEdgeStyle;rounded=0;orthogonalLoop=1;jettySize=auto;html=1;exitX=0.5;exitY=1;exitDx=0;exitDy=0;entryX=0.5;entryY=0;entryDx=0;entryDy=0;curved=1;dashed=1;" parent="1" source="oV0L0_FI22U6Fe_3e3ri-21" target="njyGxfNsTSV-C6YQ91Hw-7" edge="1">
          <mxGeometry relative="1" as="geometry" />
        </mxCell>
        <mxCell id="njyGxfNsTSV-C6YQ91Hw-12" value="owl:ObjectProperty" style="edgeLabel;html=1;align=center;verticalAlign=middle;resizable=0;points=[];" parent="njyGxfNsTSV-C6YQ91Hw-10" vertex="1" connectable="0">
          <mxGeometry x="0.0759" y="-3" relative="1" as="geometry">
            <mxPoint x="24" y="-3" as="offset" />
          </mxGeometry>
        </mxCell>
        <mxCell id="njyGxfNsTSV-C6YQ91Hw-15" style="edgeStyle=orthogonalEdgeStyle;rounded=0;orthogonalLoop=1;jettySize=auto;html=1;exitX=0;exitY=0.5;exitDx=0;exitDy=0;entryX=0;entryY=0.5;entryDx=0;entryDy=0;curved=1;dashed=1;" parent="1" source="oV0L0_FI22U6Fe_3e3ri-21" target="oV0L0_FI22U6Fe_3e3ri-1" edge="1">
          <mxGeometry relative="1" as="geometry">
            <Array as="points">
              <mxPoint x="200" y="630" />
              <mxPoint x="200" y="425" />
            </Array>
          </mxGeometry>
        </mxCell>
        <mxCell id="njyGxfNsTSV-C6YQ91Hw-16" value="prov:wasQuotedFrom" style="edgeLabel;html=1;align=center;verticalAlign=middle;resizable=0;points=[];" parent="njyGxfNsTSV-C6YQ91Hw-15" vertex="1" connectable="0">
          <mxGeometry x="-0.0789" y="-2" relative="1" as="geometry">
            <mxPoint x="8" y="-78" as="offset" />
          </mxGeometry>
        </mxCell>
        <mxCell id="oV0L0_FI22U6Fe_3e3ri-21" value="dob:Datapoint" style="rounded=1;whiteSpace=wrap;html=1;fontStyle=0;fillColor=#FFFFCC;strokeColor=#d6b656;" parent="1" vertex="1">
          <mxGeometry x="430" y="620" width="120" height="20" as="geometry" />
        </mxCell>
        <mxCell id="oV0L0_FI22U6Fe_3e3ri-47" value="xsd:dateTime" style="rounded=0;whiteSpace=wrap;html=1;fontStyle=0;fillColor=#f5f5f5;fontColor=#333333;strokeColor=#666666;" parent="1" vertex="1">
          <mxGeometry x="690" y="300" width="120" height="20" as="geometry" />
        </mxCell>
        <mxCell id="njyGxfNsTSV-C6YQ91Hw-5" value="skos:Concept" style="rounded=1;whiteSpace=wrap;html=1;fontStyle=0;fillColor=#FFFFCC;strokeColor=#d6b656;" parent="1" vertex="1">
          <mxGeometry x="890" y="360" width="120" height="20" as="geometry" />
        </mxCell>
        <mxCell id="njyGxfNsTSV-C6YQ91Hw-7" value="skos:Concept" style="rounded=1;whiteSpace=wrap;html=1;fontStyle=0;fillColor=#FFFFCC;strokeColor=#d6b656;" parent="1" vertex="1">
          <mxGeometry x="522.5" y="690" width="120" height="20" as="geometry" />
        </mxCell>
        <mxCell id="njyGxfNsTSV-C6YQ91Hw-8" value="rdfs:Literal" style="rounded=0;whiteSpace=wrap;html=1;fontStyle=0;fillColor=#f5f5f5;fontColor=#333333;strokeColor=#666666;" parent="1" vertex="1">
          <mxGeometry x="337.5" y="690" width="120" height="20" as="geometry" />
        </mxCell>
        <mxCell id="njyGxfNsTSV-C6YQ91Hw-14" style="edgeStyle=orthogonalEdgeStyle;rounded=0;orthogonalLoop=1;jettySize=auto;html=1;exitX=0.5;exitY=1;exitDx=0;exitDy=0;entryX=0.508;entryY=-0.035;entryDx=0;entryDy=0;entryPerimeter=0;dashed=1;" parent="1" source="njyGxfNsTSV-C6YQ91Hw-13" target="oV0L0_FI22U6Fe_3e3ri-21" edge="1">
          <mxGeometry relative="1" as="geometry">
            <mxPoint x="490" y="620" as="targetPoint" />
          </mxGeometry>
        </mxCell>
        <mxCell id="njyGxfNsTSV-C6YQ91Hw-17" value="prov:generated" style="edgeLabel;html=1;align=center;verticalAlign=middle;resizable=0;points=[];" parent="njyGxfNsTSV-C6YQ91Hw-14" vertex="1" connectable="0">
          <mxGeometry x="0.0858" relative="1" as="geometry">
            <mxPoint as="offset" />
          </mxGeometry>
        </mxCell>
        <mxCell id="TAd2tgTna2TvzX6ZkFK5-3" style="edgeStyle=orthogonalEdgeStyle;rounded=0;orthogonalLoop=1;jettySize=auto;html=1;exitX=0;exitY=0.5;exitDx=0;exitDy=0;entryX=1;entryY=0.5;entryDx=0;entryDy=0;dashed=1;" parent="1" source="njyGxfNsTSV-C6YQ91Hw-13" target="TAd2tgTna2TvzX6ZkFK5-1" edge="1">
          <mxGeometry relative="1" as="geometry" />
        </mxCell>
        <mxCell id="TAd2tgTna2TvzX6ZkFK5-4" value="prov:used" style="edgeLabel;html=1;align=center;verticalAlign=middle;resizable=0;points=[];" parent="TAd2tgTna2TvzX6ZkFK5-3" vertex="1" connectable="0">
          <mxGeometry x="-0.0615" y="3" relative="1" as="geometry">
            <mxPoint as="offset" />
          </mxGeometry>
        </mxCell>
        <mxCell id="njyGxfNsTSV-C6YQ91Hw-13" value="prov:Activity" style="rounded=0;whiteSpace=wrap;html=1;fontStyle=0;fillColor=#e1d5e7;strokeColor=#9673a6;" parent="1" vertex="1">
          <mxGeometry x="430" y="510" width="120" height="20" as="geometry" />
        </mxCell>
        <mxCell id="njyGxfNsTSV-C6YQ91Hw-52" style="edgeStyle=orthogonalEdgeStyle;rounded=0;orthogonalLoop=1;jettySize=auto;html=1;exitX=0.5;exitY=0;exitDx=0;exitDy=0;dashed=1;" parent="1" source="njyGxfNsTSV-C6YQ91Hw-23" edge="1">
          <mxGeometry relative="1" as="geometry">
            <mxPoint x="334.5" y="1029.9999999999998" as="targetPoint" />
          </mxGeometry>
        </mxCell>
        <mxCell id="njyGxfNsTSV-C6YQ91Hw-54" value="dct:issued&lt;div&gt;dct:format&lt;/div&gt;&lt;div&gt;dcat:accessURL&lt;/div&gt;&lt;div&gt;dct:license&lt;/div&gt;" style="edgeLabel;html=1;align=center;verticalAlign=middle;resizable=0;points=[];" parent="njyGxfNsTSV-C6YQ91Hw-52" vertex="1" connectable="0">
          <mxGeometry x="-0.0829" y="-1" relative="1" as="geometry">
            <mxPoint as="offset" />
          </mxGeometry>
        </mxCell>
        <mxCell id="njyGxfNsTSV-C6YQ91Hw-23" value="dcat:Distribution" style="rounded=1;whiteSpace=wrap;html=1;fontStyle=0;fillColor=#FFFFCC;strokeColor=#d6b656;" parent="1" vertex="1">
          <mxGeometry x="264.5" y="1120" width="140" height="20" as="geometry" />
        </mxCell>
        <mxCell id="njyGxfNsTSV-C6YQ91Hw-63" style="edgeStyle=orthogonalEdgeStyle;rounded=0;orthogonalLoop=1;jettySize=auto;html=1;exitX=0.5;exitY=0;exitDx=0;exitDy=0;entryX=0.5;entryY=1;entryDx=0;entryDy=0;curved=1;dashed=1;" parent="1" source="njyGxfNsTSV-C6YQ91Hw-26" target="AXHpVSYGd78fP7F2rx1N-1" edge="1">
          <mxGeometry relative="1" as="geometry" />
        </mxCell>
        <mxCell id="njyGxfNsTSV-C6YQ91Hw-64" value="ssn:hasProperty" style="edgeLabel;html=1;align=center;verticalAlign=middle;resizable=0;points=[];" parent="njyGxfNsTSV-C6YQ91Hw-63" vertex="1" connectable="0">
          <mxGeometry x="-0.0516" y="1" relative="1" as="geometry">
            <mxPoint as="offset" />
          </mxGeometry>
        </mxCell>
        <mxCell id="njyGxfNsTSV-C6YQ91Hw-26" value="sosa:FeatureOfInterest" style="rounded=1;whiteSpace=wrap;html=1;fontStyle=0;fillColor=#FFFFCC;strokeColor=#d6b656;" parent="1" vertex="1">
          <mxGeometry x="532.5" y="1290" width="170" height="20" as="geometry" />
        </mxCell>
        <mxCell id="njyGxfNsTSV-C6YQ91Hw-27" style="edgeStyle=orthogonalEdgeStyle;rounded=0;orthogonalLoop=1;jettySize=auto;html=1;exitX=1;exitY=0.5;exitDx=0;exitDy=0;entryX=0;entryY=0.5;entryDx=0;entryDy=0;curved=1;startArrow=classic;startFill=1;dashed=1;" parent="1" source="njyGxfNsTSV-C6YQ91Hw-42" target="njyGxfNsTSV-C6YQ91Hw-26" edge="1">
          <mxGeometry relative="1" as="geometry" />
        </mxCell>
        <mxCell id="njyGxfNsTSV-C6YQ91Hw-28" value="sosa:hasFeatureOfInterest" style="edgeLabel;html=1;align=center;verticalAlign=middle;resizable=0;points=[];" parent="njyGxfNsTSV-C6YQ91Hw-27" vertex="1" connectable="0">
          <mxGeometry x="-0.0118" relative="1" as="geometry">
            <mxPoint x="-2" y="-9" as="offset" />
          </mxGeometry>
        </mxCell>
        <mxCell id="njyGxfNsTSV-C6YQ91Hw-29" style="edgeStyle=orthogonalEdgeStyle;rounded=0;orthogonalLoop=1;jettySize=auto;html=1;exitX=0.5;exitY=0;exitDx=0;exitDy=0;entryX=0.5;entryY=1;entryDx=0;entryDy=0;dashed=1;" parent="1" source="njyGxfNsTSV-C6YQ91Hw-42" target="njyGxfNsTSV-C6YQ91Hw-23" edge="1">
          <mxGeometry relative="1" as="geometry" />
        </mxCell>
        <mxCell id="njyGxfNsTSV-C6YQ91Hw-30" value="dob:usedData" style="edgeLabel;html=1;align=center;verticalAlign=middle;resizable=0;points=[];" parent="njyGxfNsTSV-C6YQ91Hw-29" vertex="1" connectable="0">
          <mxGeometry x="-0.0571" y="2" relative="1" as="geometry">
            <mxPoint as="offset" />
          </mxGeometry>
        </mxCell>
        <mxCell id="njyGxfNsTSV-C6YQ91Hw-31" style="edgeStyle=orthogonalEdgeStyle;rounded=0;orthogonalLoop=1;jettySize=auto;html=1;exitX=0.5;exitY=1;exitDx=0;exitDy=0;entryX=0.5;entryY=0;entryDx=0;entryDy=0;curved=1;dashed=1;dashPattern=1 2;" parent="1" source="njyGxfNsTSV-C6YQ91Hw-37" target="njyGxfNsTSV-C6YQ91Hw-39" edge="1">
          <mxGeometry relative="1" as="geometry" />
        </mxCell>
        <mxCell id="njyGxfNsTSV-C6YQ91Hw-32" value="owl:DatatypeProperty" style="edgeLabel;html=1;align=center;verticalAlign=middle;resizable=0;points=[];" parent="njyGxfNsTSV-C6YQ91Hw-31" vertex="1" connectable="0">
          <mxGeometry x="0.5714" y="-1" relative="1" as="geometry">
            <mxPoint as="offset" />
          </mxGeometry>
        </mxCell>
        <mxCell id="njyGxfNsTSV-C6YQ91Hw-33" style="edgeStyle=orthogonalEdgeStyle;rounded=0;orthogonalLoop=1;jettySize=auto;html=1;exitX=0.5;exitY=1;exitDx=0;exitDy=0;entryX=0.5;entryY=0;entryDx=0;entryDy=0;curved=1;dashed=1;" parent="1" source="njyGxfNsTSV-C6YQ91Hw-37" target="njyGxfNsTSV-C6YQ91Hw-38" edge="1">
          <mxGeometry relative="1" as="geometry" />
        </mxCell>
        <mxCell id="njyGxfNsTSV-C6YQ91Hw-34" value="owl:ObjectProperty" style="edgeLabel;html=1;align=center;verticalAlign=middle;resizable=0;points=[];" parent="njyGxfNsTSV-C6YQ91Hw-33" vertex="1" connectable="0">
          <mxGeometry x="0.0759" y="-3" relative="1" as="geometry">
            <mxPoint x="24" y="-3" as="offset" />
          </mxGeometry>
        </mxCell>
        <mxCell id="njyGxfNsTSV-C6YQ91Hw-35" style="edgeStyle=orthogonalEdgeStyle;rounded=0;orthogonalLoop=1;jettySize=auto;html=1;exitX=0;exitY=0.5;exitDx=0;exitDy=0;entryX=0;entryY=0.5;entryDx=0;entryDy=0;curved=1;dashed=1;" parent="1" source="njyGxfNsTSV-C6YQ91Hw-37" target="njyGxfNsTSV-C6YQ91Hw-23" edge="1">
          <mxGeometry relative="1" as="geometry">
            <Array as="points">
              <mxPoint x="193" y="1350" />
              <mxPoint x="193" y="1130" />
            </Array>
          </mxGeometry>
        </mxCell>
        <mxCell id="njyGxfNsTSV-C6YQ91Hw-36" value="prov:wasQuotedFrom" style="edgeLabel;html=1;align=center;verticalAlign=middle;resizable=0;points=[];" parent="njyGxfNsTSV-C6YQ91Hw-35" vertex="1" connectable="0">
          <mxGeometry x="-0.0789" y="-2" relative="1" as="geometry">
            <mxPoint x="8" y="-38" as="offset" />
          </mxGeometry>
        </mxCell>
        <mxCell id="njyGxfNsTSV-C6YQ91Hw-37" value="dob:DataPoint" style="rounded=1;whiteSpace=wrap;html=1;fontStyle=0;fillColor=#FFFFCC;strokeColor=#d6b656;" parent="1" vertex="1">
          <mxGeometry x="272.5" y="1340" width="120" height="20" as="geometry" />
        </mxCell>
        <mxCell id="njyGxfNsTSV-C6YQ91Hw-38" value="skos:Concept" style="rounded=1;whiteSpace=wrap;html=1;fontStyle=0;fillColor=#FFFFCC;strokeColor=#d6b656;" parent="1" vertex="1">
          <mxGeometry x="365" y="1420" width="120" height="20" as="geometry" />
        </mxCell>
        <mxCell id="njyGxfNsTSV-C6YQ91Hw-39" value="rdfs:Literal" style="rounded=0;whiteSpace=wrap;html=1;fontStyle=0;fillColor=#f5f5f5;fontColor=#333333;strokeColor=#666666;" parent="1" vertex="1">
          <mxGeometry x="180" y="1420" width="120" height="20" as="geometry" />
        </mxCell>
        <mxCell id="njyGxfNsTSV-C6YQ91Hw-40" style="edgeStyle=orthogonalEdgeStyle;rounded=0;orthogonalLoop=1;jettySize=auto;html=1;exitX=0.5;exitY=1;exitDx=0;exitDy=0;entryX=0.508;entryY=-0.035;entryDx=0;entryDy=0;entryPerimeter=0;dashed=1;" parent="1" source="njyGxfNsTSV-C6YQ91Hw-42" target="njyGxfNsTSV-C6YQ91Hw-37" edge="1">
          <mxGeometry relative="1" as="geometry">
            <mxPoint x="332.5" y="1350" as="targetPoint" />
          </mxGeometry>
        </mxCell>
        <mxCell id="njyGxfNsTSV-C6YQ91Hw-41" value="prov:generated&lt;div&gt;prov:wasGeneratedBy&lt;/div&gt;" style="edgeLabel;html=1;align=center;verticalAlign=middle;resizable=0;points=[];" parent="njyGxfNsTSV-C6YQ91Hw-40" vertex="1" connectable="0">
          <mxGeometry x="0.0858" relative="1" as="geometry">
            <mxPoint as="offset" />
          </mxGeometry>
        </mxCell>
        <mxCell id="AXHpVSYGd78fP7F2rx1N-2" style="edgeStyle=orthogonalEdgeStyle;rounded=0;orthogonalLoop=1;jettySize=auto;html=1;exitX=0.5;exitY=0;exitDx=0;exitDy=0;entryX=0;entryY=0.5;entryDx=0;entryDy=0;curved=1;dashed=1;" parent="1" source="njyGxfNsTSV-C6YQ91Hw-42" target="AXHpVSYGd78fP7F2rx1N-1" edge="1">
          <mxGeometry relative="1" as="geometry" />
        </mxCell>
        <mxCell id="AXHpVSYGd78fP7F2rx1N-4" value="ssn:forProperty (optional)" style="edgeLabel;html=1;align=center;verticalAlign=middle;resizable=0;points=[];" parent="AXHpVSYGd78fP7F2rx1N-2" vertex="1" connectable="0">
          <mxGeometry x="0.1947" y="-3" relative="1" as="geometry">
            <mxPoint y="1" as="offset" />
          </mxGeometry>
        </mxCell>
        <mxCell id="njyGxfNsTSV-C6YQ91Hw-42" value="prov:Activity" style="rounded=0;whiteSpace=wrap;html=1;fontStyle=0;fillColor=#e1d5e7;strokeColor=#9673a6;" parent="1" vertex="1">
          <mxGeometry x="272.5" y="1240" width="120" height="20" as="geometry" />
        </mxCell>
        <mxCell id="njyGxfNsTSV-C6YQ91Hw-49" value="External Datasets" style="text;html=1;align=center;verticalAlign=middle;whiteSpace=wrap;rounded=0;fontStyle=1;fontSize=18;" parent="1" vertex="1">
          <mxGeometry x="164.5" y="950" width="110" height="30" as="geometry" />
        </mxCell>
        <mxCell id="njyGxfNsTSV-C6YQ91Hw-55" style="edgeStyle=orthogonalEdgeStyle;rounded=0;orthogonalLoop=1;jettySize=auto;html=1;exitX=0;exitY=0.5;exitDx=0;exitDy=0;dashed=1;" parent="1" source="njyGxfNsTSV-C6YQ91Hw-50" target="njyGxfNsTSV-C6YQ91Hw-23" edge="1">
          <mxGeometry relative="1" as="geometry" />
        </mxCell>
        <mxCell id="njyGxfNsTSV-C6YQ91Hw-56" value="dcat:distribution" style="edgeLabel;html=1;align=center;verticalAlign=middle;resizable=0;points=[];" parent="njyGxfNsTSV-C6YQ91Hw-55" vertex="1" connectable="0">
          <mxGeometry x="0.0939" y="-3" relative="1" as="geometry">
            <mxPoint as="offset" />
          </mxGeometry>
        </mxCell>
        <mxCell id="njyGxfNsTSV-C6YQ91Hw-59" style="edgeStyle=orthogonalEdgeStyle;rounded=0;orthogonalLoop=1;jettySize=auto;html=1;exitX=0.5;exitY=0;exitDx=0;exitDy=0;entryX=0.5;entryY=1;entryDx=0;entryDy=0;dashed=1;" parent="1" source="njyGxfNsTSV-C6YQ91Hw-50" target="njyGxfNsTSV-C6YQ91Hw-58" edge="1">
          <mxGeometry relative="1" as="geometry" />
        </mxCell>
        <mxCell id="njyGxfNsTSV-C6YQ91Hw-60" value="dct:publisher&lt;div&gt;dct:title&lt;/div&gt;&lt;div&gt;dct:spatial&lt;br&gt;&lt;/div&gt;&lt;div&gt;dct:description&lt;br&gt;&lt;/div&gt;" style="edgeLabel;html=1;align=center;verticalAlign=middle;resizable=0;points=[];" parent="njyGxfNsTSV-C6YQ91Hw-59" vertex="1" connectable="0">
          <mxGeometry x="0.1579" y="-2" relative="1" as="geometry">
            <mxPoint x="-2" y="12" as="offset" />
          </mxGeometry>
        </mxCell>
        <mxCell id="njyGxfNsTSV-C6YQ91Hw-65" style="edgeStyle=orthogonalEdgeStyle;rounded=0;orthogonalLoop=1;jettySize=auto;html=1;exitX=1;exitY=0.5;exitDx=0;exitDy=0;entryX=0.5;entryY=0;entryDx=0;entryDy=0;curved=1;dashed=1;" parent="1" source="njyGxfNsTSV-C6YQ91Hw-50" target="njyGxfNsTSV-C6YQ91Hw-61" edge="1">
          <mxGeometry relative="1" as="geometry" />
        </mxCell>
        <mxCell id="njyGxfNsTSV-C6YQ91Hw-66" value="dcat:theme" style="edgeLabel;html=1;align=center;verticalAlign=middle;resizable=0;points=[];" parent="njyGxfNsTSV-C6YQ91Hw-65" vertex="1" connectable="0">
          <mxGeometry x="-0.2022" y="-1" relative="1" as="geometry">
            <mxPoint as="offset" />
          </mxGeometry>
        </mxCell>
        <mxCell id="njyGxfNsTSV-C6YQ91Hw-50" value="dcat:Dataset" style="rounded=1;whiteSpace=wrap;html=1;fontStyle=0;fillColor=#FFFFCC;strokeColor=#d6b656;" parent="1" vertex="1">
          <mxGeometry x="542" y="1120" width="140" height="20" as="geometry" />
        </mxCell>
        <mxCell id="njyGxfNsTSV-C6YQ91Hw-53" value="rdfs:Resource" style="rounded=0;whiteSpace=wrap;html=1;fontStyle=0;fillColor=#f5f5f5;fontColor=#333333;strokeColor=#666666;" parent="1" vertex="1">
          <mxGeometry x="274.5" y="1010" width="120" height="20" as="geometry" />
        </mxCell>
        <mxCell id="njyGxfNsTSV-C6YQ91Hw-58" value="rdfs:Resource" style="rounded=0;whiteSpace=wrap;html=1;fontStyle=0;fillColor=#f5f5f5;fontColor=#333333;strokeColor=#666666;" parent="1" vertex="1">
          <mxGeometry x="552" y="1010" width="120" height="20" as="geometry" />
        </mxCell>
        <mxCell id="njyGxfNsTSV-C6YQ91Hw-61" value="skos:Concept" style="rounded=1;whiteSpace=wrap;html=1;fontStyle=0;fillColor=#FFFFCC;strokeColor=#d6b656;" parent="1" vertex="1">
          <mxGeometry x="780" y="1180" width="140" height="20" as="geometry" />
        </mxCell>
        <mxCell id="njyGxfNsTSV-C6YQ91Hw-62" value="sosa:isFeatureOfInterestOf" style="edgeLabel;html=1;align=center;verticalAlign=middle;resizable=0;points=[];" parent="1" vertex="1" connectable="0">
          <mxGeometry x="459.99999999999994" y="1290" as="geometry" />
        </mxCell>
        <mxCell id="AXHpVSYGd78fP7F2rx1N-5" style="edgeStyle=orthogonalEdgeStyle;rounded=0;orthogonalLoop=1;jettySize=auto;html=1;exitX=1;exitY=0.5;exitDx=0;exitDy=0;strokeWidth=1;endSize=6;startSize=6;" parent="1" source="AXHpVSYGd78fP7F2rx1N-1" target="njyGxfNsTSV-C6YQ91Hw-61" edge="1">
          <mxGeometry relative="1" as="geometry" />
        </mxCell>
        <mxCell id="AXHpVSYGd78fP7F2rx1N-1" value="ssn:Property" style="rounded=1;whiteSpace=wrap;html=1;fontStyle=0;fillColor=#FFFFCC;strokeColor=#d6b656;" parent="1" vertex="1">
          <mxGeometry x="547.5" y="1180" width="140" height="20" as="geometry" />
        </mxCell>
        <mxCell id="AXHpVSYGd78fP7F2rx1N-9" value="sosa:isFeatureOfInterestOf" style="edgeLabel;html=1;align=center;verticalAlign=middle;resizable=0;points=[];" parent="1" vertex="1" connectable="0">
          <mxGeometry x="619.9952173913047" y="540" as="geometry" />
        </mxCell>
        <mxCell id="TAd2tgTna2TvzX6ZkFK5-1" value="prov:Plan" style="rounded=1;whiteSpace=wrap;html=1;fontStyle=0;fillColor=#FFFFCC;strokeColor=#d6b656;" parent="1" vertex="1">
          <mxGeometry x="217.5" y="510" width="120" height="20" as="geometry" />
        </mxCell>
        <mxCell id="-XH-i8WMADYhDzxLogL1-3" style="edgeStyle=orthogonalEdgeStyle;rounded=0;orthogonalLoop=1;jettySize=auto;html=1;exitX=0.5;exitY=1;exitDx=0;exitDy=0;entryX=0;entryY=0;entryDx=0;entryDy=0;curved=1;startArrow=classic;startFill=1;dashed=1;" parent="1" edge="1">
          <mxGeometry relative="1" as="geometry">
            <Array as="points">
              <mxPoint x="1679.96" y="429" />
              <mxPoint x="1879.96" y="429" />
            </Array>
            <mxPoint x="1679.96" y="399" as="sourcePoint" />
            <mxPoint x="1879.96" y="469" as="targetPoint" />
          </mxGeometry>
        </mxCell>
        <mxCell id="-XH-i8WMADYhDzxLogL1-4" value="&lt;div&gt;sosa:hasFeatureOfInterest&lt;/div&gt;&lt;div&gt;sosa:isFeatureOfInterestOf&lt;/div&gt;" style="edgeLabel;html=1;align=center;verticalAlign=middle;resizable=0;points=[];" parent="-XH-i8WMADYhDzxLogL1-3" vertex="1" connectable="0">
          <mxGeometry x="-0.3128" y="-7" relative="1" as="geometry">
            <mxPoint x="67" y="-7" as="offset" />
          </mxGeometry>
        </mxCell>
        <mxCell id="-XH-i8WMADYhDzxLogL1-56" style="edgeStyle=orthogonalEdgeStyle;rounded=0;orthogonalLoop=1;jettySize=auto;html=1;exitX=0.5;exitY=0;exitDx=0;exitDy=0;entryX=0.5;entryY=1;entryDx=0;entryDy=0;dashed=1;" parent="1" source="-XH-i8WMADYhDzxLogL1-16" target="-XH-i8WMADYhDzxLogL1-55" edge="1">
          <mxGeometry relative="1" as="geometry" />
        </mxCell>
        <mxCell id="-XH-i8WMADYhDzxLogL1-57" value="sosa:madeBySensor" style="edgeLabel;html=1;align=center;verticalAlign=middle;resizable=0;points=[];" parent="-XH-i8WMADYhDzxLogL1-56" vertex="1" connectable="0">
          <mxGeometry x="-0.0422" relative="1" as="geometry">
            <mxPoint as="offset" />
          </mxGeometry>
        </mxCell>
        <mxCell id="-XH-i8WMADYhDzxLogL1-70" style="edgeStyle=orthogonalEdgeStyle;rounded=0;orthogonalLoop=1;jettySize=auto;html=1;exitX=1;exitY=0.5;exitDx=0;exitDy=0;entryX=0;entryY=0.5;entryDx=0;entryDy=0;dashed=1;dashPattern=1 2;" parent="1" source="-XH-i8WMADYhDzxLogL1-16" target="-XH-i8WMADYhDzxLogL1-69" edge="1">
          <mxGeometry relative="1" as="geometry" />
        </mxCell>
        <mxCell id="-XH-i8WMADYhDzxLogL1-16" value="sosa:Observation" style="rounded=0;whiteSpace=wrap;html=1;fontStyle=0;fillColor=#e1d5e7;strokeColor=#9673a6;" parent="1" vertex="1">
          <mxGeometry x="1620" y="380" width="120" height="19" as="geometry" />
        </mxCell>
        <mxCell id="-XH-i8WMADYhDzxLogL1-21" value="sosa:FeatureOfInterest" style="rounded=1;whiteSpace=wrap;html=1;fontStyle=0;fillColor=#FFFFCC;strokeColor=#d6b656;" parent="1" vertex="1">
          <mxGeometry x="1880" y="480" width="170" height="19" as="geometry" />
        </mxCell>
        <mxCell id="-XH-i8WMADYhDzxLogL1-24" style="edgeStyle=orthogonalEdgeStyle;rounded=0;orthogonalLoop=1;jettySize=auto;html=1;exitX=1;exitY=0.5;exitDx=0;exitDy=0;entryX=0;entryY=0.5;entryDx=0;entryDy=0;curved=1;startArrow=classic;startFill=1;dashed=1;" parent="1" target="-XH-i8WMADYhDzxLogL1-21" edge="1">
          <mxGeometry relative="1" as="geometry">
            <mxPoint x="1740" y="489.5" as="sourcePoint" />
          </mxGeometry>
        </mxCell>
        <mxCell id="-XH-i8WMADYhDzxLogL1-25" value="sosa:hasFeatureOfInterest" style="edgeLabel;html=1;align=center;verticalAlign=middle;resizable=0;points=[];" parent="-XH-i8WMADYhDzxLogL1-24" vertex="1" connectable="0">
          <mxGeometry x="-0.0118" relative="1" as="geometry">
            <mxPoint x="1" y="-15" as="offset" />
          </mxGeometry>
        </mxCell>
        <mxCell id="-XH-i8WMADYhDzxLogL1-26" style="edgeStyle=orthogonalEdgeStyle;rounded=0;orthogonalLoop=1;jettySize=auto;html=1;exitX=0.5;exitY=0;exitDx=0;exitDy=0;entryX=0.5;entryY=1;entryDx=0;entryDy=0;dashed=1;" parent="1" edge="1">
          <mxGeometry relative="1" as="geometry">
            <mxPoint x="1680" y="399" as="targetPoint" />
            <mxPoint x="1680" y="480" as="sourcePoint" />
          </mxGeometry>
        </mxCell>
        <mxCell id="-XH-i8WMADYhDzxLogL1-27" value="prov:wasInformedBy" style="edgeLabel;html=1;align=center;verticalAlign=middle;resizable=0;points=[];" parent="-XH-i8WMADYhDzxLogL1-26" vertex="1" connectable="0">
          <mxGeometry x="-0.0571" y="2" relative="1" as="geometry">
            <mxPoint as="offset" />
          </mxGeometry>
        </mxCell>
        <mxCell id="-XH-i8WMADYhDzxLogL1-28" style="edgeStyle=orthogonalEdgeStyle;rounded=0;orthogonalLoop=1;jettySize=auto;html=1;exitX=0.5;exitY=1;exitDx=0;exitDy=0;entryX=0.5;entryY=0;entryDx=0;entryDy=0;curved=1;dashed=1;dashPattern=1 2;" parent="1" source="-XH-i8WMADYhDzxLogL1-34" target="-XH-i8WMADYhDzxLogL1-44" edge="1">
          <mxGeometry relative="1" as="geometry" />
        </mxCell>
        <mxCell id="-XH-i8WMADYhDzxLogL1-29" value="owl:DatatypeProperty" style="edgeLabel;html=1;align=center;verticalAlign=middle;resizable=0;points=[];" parent="-XH-i8WMADYhDzxLogL1-28" vertex="1" connectable="0">
          <mxGeometry x="0.5714" y="-1" relative="1" as="geometry">
            <mxPoint as="offset" />
          </mxGeometry>
        </mxCell>
        <mxCell id="-XH-i8WMADYhDzxLogL1-30" style="edgeStyle=orthogonalEdgeStyle;rounded=0;orthogonalLoop=1;jettySize=auto;html=1;exitX=0.5;exitY=1;exitDx=0;exitDy=0;entryX=0.5;entryY=0;entryDx=0;entryDy=0;curved=1;dashed=1;" parent="1" source="-XH-i8WMADYhDzxLogL1-34" target="-XH-i8WMADYhDzxLogL1-43" edge="1">
          <mxGeometry relative="1" as="geometry" />
        </mxCell>
        <mxCell id="-XH-i8WMADYhDzxLogL1-31" value="owl:ObjectProperty" style="edgeLabel;html=1;align=center;verticalAlign=middle;resizable=0;points=[];" parent="-XH-i8WMADYhDzxLogL1-30" vertex="1" connectable="0">
          <mxGeometry x="0.0759" y="-3" relative="1" as="geometry">
            <mxPoint x="11" y="6" as="offset" />
          </mxGeometry>
        </mxCell>
        <mxCell id="-XH-i8WMADYhDzxLogL1-34" value="dob:Result" style="rounded=1;whiteSpace=wrap;html=1;fontStyle=0;fillColor=#FFFFCC;strokeColor=#d6b656;" parent="1" vertex="1">
          <mxGeometry x="1620" y="480" width="120" height="19" as="geometry" />
        </mxCell>
        <mxCell id="-XH-i8WMADYhDzxLogL1-43" value="skos:Concept" style="rounded=1;whiteSpace=wrap;html=1;fontStyle=0;fillColor=#FFFFCC;strokeColor=#d6b656;" parent="1" vertex="1">
          <mxGeometry x="1712.5" y="619.5" width="120" height="21" as="geometry" />
        </mxCell>
        <mxCell id="-XH-i8WMADYhDzxLogL1-44" value="rdfs:Literal" style="rounded=0;whiteSpace=wrap;html=1;fontStyle=0;fillColor=#f5f5f5;fontColor=#333333;strokeColor=#666666;" parent="1" vertex="1">
          <mxGeometry x="1511.83" y="619" width="120" height="21" as="geometry" />
        </mxCell>
        <mxCell id="-XH-i8WMADYhDzxLogL1-47" style="edgeStyle=orthogonalEdgeStyle;rounded=0;orthogonalLoop=1;jettySize=auto;html=1;exitX=0;exitY=0.5;exitDx=0;exitDy=0;entryX=1;entryY=0.5;entryDx=0;entryDy=0;dashed=1;" parent="1" target="-XH-i8WMADYhDzxLogL1-53" edge="1">
          <mxGeometry relative="1" as="geometry">
            <mxPoint x="1620" y="489.5" as="sourcePoint" />
          </mxGeometry>
        </mxCell>
        <mxCell id="-XH-i8WMADYhDzxLogL1-52" value="sosa:isFeatureOfInterestOf" style="edgeLabel;html=1;align=center;verticalAlign=middle;resizable=0;points=[];" parent="1" vertex="1" connectable="0">
          <mxGeometry x="1809.9952173913048" y="499" as="geometry" />
        </mxCell>
        <mxCell id="-XH-i8WMADYhDzxLogL1-53" value="dob:SoftwarePipeline" style="rounded=1;whiteSpace=wrap;html=1;fontStyle=0;fillColor=#FFFFCC;strokeColor=#d6b656;" parent="1" vertex="1">
          <mxGeometry x="1370" y="480" width="120" height="19" as="geometry" />
        </mxCell>
        <mxCell id="-XH-i8WMADYhDzxLogL1-54" value="Sensor Observation" style="text;html=1;align=center;verticalAlign=middle;whiteSpace=wrap;rounded=0;fontStyle=1;fontSize=18;" parent="1" vertex="1">
          <mxGeometry x="1340" y="149" width="140" height="30" as="geometry" />
        </mxCell>
        <mxCell id="-XH-i8WMADYhDzxLogL1-55" value="sosa:Sensor" style="rounded=1;whiteSpace=wrap;html=1;fontStyle=0;fillColor=#FFFFCC;strokeColor=#d6b656;" parent="1" vertex="1">
          <mxGeometry x="1620" y="270" width="120" height="19" as="geometry" />
        </mxCell>
        <mxCell id="-XH-i8WMADYhDzxLogL1-63" style="edgeStyle=orthogonalEdgeStyle;rounded=0;orthogonalLoop=1;jettySize=auto;html=1;exitX=0.5;exitY=0;exitDx=0;exitDy=0;entryX=0.5;entryY=0;entryDx=0;entryDy=0;curved=1;dashed=1;" parent="1" source="-XH-i8WMADYhDzxLogL1-62" target="-XH-i8WMADYhDzxLogL1-55" edge="1">
          <mxGeometry relative="1" as="geometry">
            <Array as="points">
              <mxPoint x="1500" y="219" />
              <mxPoint x="1680" y="219" />
            </Array>
          </mxGeometry>
        </mxCell>
        <mxCell id="-XH-i8WMADYhDzxLogL1-64" value="ssn:deployedSystem" style="edgeLabel;html=1;align=center;verticalAlign=middle;resizable=0;points=[];" parent="-XH-i8WMADYhDzxLogL1-63" vertex="1" connectable="0">
          <mxGeometry x="0.0609" y="-4" relative="1" as="geometry">
            <mxPoint as="offset" />
          </mxGeometry>
        </mxCell>
        <mxCell id="-XH-i8WMADYhDzxLogL1-62" value="ssn:Deployment" style="rounded=0;whiteSpace=wrap;html=1;fontStyle=0;fillColor=#e1d5e7;strokeColor=#9673a6;" parent="1" vertex="1">
          <mxGeometry x="1440" y="270" width="120" height="18.98" as="geometry" />
        </mxCell>
        <mxCell id="-XH-i8WMADYhDzxLogL1-68" value="sosa:resultTime" style="edgeLabel;html=1;align=center;verticalAlign=middle;resizable=0;points=[];" parent="1" vertex="1" connectable="0">
          <mxGeometry x="1809.9965217391305" y="380.0000000000002" as="geometry" />
        </mxCell>
        <mxCell id="-XH-i8WMADYhDzxLogL1-69" value="xsd:dateTime" style="rounded=0;whiteSpace=wrap;html=1;fontStyle=0;fillColor=#f5f5f5;fontColor=#333333;strokeColor=#666666;" parent="1" vertex="1">
          <mxGeometry x="1890.7" y="380" width="120" height="19" as="geometry" />
        </mxCell>
        <mxCell id="-XH-i8WMADYhDzxLogL1-72" value="Inference" style="text;html=1;align=center;verticalAlign=middle;whiteSpace=wrap;rounded=0;fontStyle=1;fontSize=18;" parent="1" vertex="1">
          <mxGeometry x="1310" y="920" width="110" height="30" as="geometry" />
        </mxCell>
        <mxCell id="-XH-i8WMADYhDzxLogL1-75" value="dcat:Distribution" style="rounded=1;whiteSpace=wrap;html=1;fontStyle=0;fillColor=#FFFFCC;strokeColor=#d6b656;" parent="1" vertex="1">
          <mxGeometry x="1740" y="1110" width="140" height="20" as="geometry" />
        </mxCell>
        <mxCell id="-XH-i8WMADYhDzxLogL1-76" style="edgeStyle=orthogonalEdgeStyle;rounded=0;orthogonalLoop=1;jettySize=auto;html=1;exitX=0.5;exitY=0;exitDx=0;exitDy=0;entryX=0.5;entryY=1;entryDx=0;entryDy=0;curved=1;dashed=1;" parent="1" source="-XH-i8WMADYhDzxLogL1-78" target="-XH-i8WMADYhDzxLogL1-109" edge="1">
          <mxGeometry relative="1" as="geometry" />
        </mxCell>
        <mxCell id="-XH-i8WMADYhDzxLogL1-77" value="ssn:hasProperty" style="edgeLabel;html=1;align=center;verticalAlign=middle;resizable=0;points=[];" parent="-XH-i8WMADYhDzxLogL1-76" vertex="1" connectable="0">
          <mxGeometry x="-0.0516" y="1" relative="1" as="geometry">
            <mxPoint as="offset" />
          </mxGeometry>
        </mxCell>
        <mxCell id="-XH-i8WMADYhDzxLogL1-78" value="sosa:FeatureOfInterest" style="rounded=1;whiteSpace=wrap;html=1;fontStyle=0;fillColor=#FFFFCC;strokeColor=#d6b656;" parent="1" vertex="1">
          <mxGeometry x="1802.5" y="1325" width="170" height="20" as="geometry" />
        </mxCell>
        <mxCell id="-XH-i8WMADYhDzxLogL1-79" style="edgeStyle=orthogonalEdgeStyle;rounded=0;orthogonalLoop=1;jettySize=auto;html=1;exitX=1;exitY=0.5;exitDx=0;exitDy=0;entryX=0;entryY=0.5;entryDx=0;entryDy=0;curved=1;startArrow=classic;startFill=1;dashed=1;" parent="1" source="-XH-i8WMADYhDzxLogL1-96" target="-XH-i8WMADYhDzxLogL1-78" edge="1">
          <mxGeometry relative="1" as="geometry" />
        </mxCell>
        <mxCell id="-XH-i8WMADYhDzxLogL1-80" value="sosa:hasFeatureOfInterest" style="edgeLabel;html=1;align=center;verticalAlign=middle;resizable=0;points=[];" parent="-XH-i8WMADYhDzxLogL1-79" vertex="1" connectable="0">
          <mxGeometry x="-0.0118" relative="1" as="geometry">
            <mxPoint x="-2" y="-9" as="offset" />
          </mxGeometry>
        </mxCell>
        <mxCell id="-XH-i8WMADYhDzxLogL1-81" style="edgeStyle=orthogonalEdgeStyle;rounded=0;orthogonalLoop=1;jettySize=auto;html=1;exitX=0.5;exitY=0;exitDx=0;exitDy=0;entryX=0.5;entryY=1;entryDx=0;entryDy=0;curved=1;dashed=1;" parent="1" source="-XH-i8WMADYhDzxLogL1-96" target="-XH-i8WMADYhDzxLogL1-75" edge="1">
          <mxGeometry relative="1" as="geometry" />
        </mxCell>
        <mxCell id="-XH-i8WMADYhDzxLogL1-82" value="dob:usedData" style="edgeLabel;html=1;align=center;verticalAlign=middle;resizable=0;points=[];" parent="-XH-i8WMADYhDzxLogL1-81" vertex="1" connectable="0">
          <mxGeometry x="-0.0571" y="2" relative="1" as="geometry">
            <mxPoint x="4" y="-8" as="offset" />
          </mxGeometry>
        </mxCell>
        <mxCell id="-XH-i8WMADYhDzxLogL1-83" style="edgeStyle=orthogonalEdgeStyle;rounded=0;orthogonalLoop=1;jettySize=auto;html=1;exitX=0.5;exitY=1;exitDx=0;exitDy=0;entryX=0.5;entryY=0;entryDx=0;entryDy=0;curved=1;dashed=1;dashPattern=1 2;" parent="1" source="-XH-i8WMADYhDzxLogL1-89" target="-XH-i8WMADYhDzxLogL1-91" edge="1">
          <mxGeometry relative="1" as="geometry" />
        </mxCell>
        <mxCell id="-XH-i8WMADYhDzxLogL1-84" value="owl:DatatypeProperty" style="edgeLabel;html=1;align=center;verticalAlign=middle;resizable=0;points=[];" parent="-XH-i8WMADYhDzxLogL1-83" vertex="1" connectable="0">
          <mxGeometry x="0.5714" y="-1" relative="1" as="geometry">
            <mxPoint as="offset" />
          </mxGeometry>
        </mxCell>
        <mxCell id="-XH-i8WMADYhDzxLogL1-85" style="edgeStyle=orthogonalEdgeStyle;rounded=0;orthogonalLoop=1;jettySize=auto;html=1;exitX=0.5;exitY=1;exitDx=0;exitDy=0;entryX=0.5;entryY=0;entryDx=0;entryDy=0;curved=1;dashed=1;" parent="1" source="-XH-i8WMADYhDzxLogL1-89" target="-XH-i8WMADYhDzxLogL1-90" edge="1">
          <mxGeometry relative="1" as="geometry" />
        </mxCell>
        <mxCell id="-XH-i8WMADYhDzxLogL1-86" value="owl:ObjectProperty" style="edgeLabel;html=1;align=center;verticalAlign=middle;resizable=0;points=[];" parent="-XH-i8WMADYhDzxLogL1-85" vertex="1" connectable="0">
          <mxGeometry x="0.0759" y="-3" relative="1" as="geometry">
            <mxPoint x="24" y="-3" as="offset" />
          </mxGeometry>
        </mxCell>
        <mxCell id="-XH-i8WMADYhDzxLogL1-89" value="dob:DataPoint" style="rounded=1;whiteSpace=wrap;html=1;fontStyle=0;fillColor=#FFFFCC;strokeColor=#d6b656;" parent="1" vertex="1">
          <mxGeometry x="1542.5" y="1380" width="120" height="20" as="geometry" />
        </mxCell>
        <mxCell id="-XH-i8WMADYhDzxLogL1-90" value="skos:Concept" style="rounded=1;whiteSpace=wrap;html=1;fontStyle=0;fillColor=#FFFFCC;strokeColor=#d6b656;" parent="1" vertex="1">
          <mxGeometry x="1635" y="1460" width="120" height="21" as="geometry" />
        </mxCell>
        <mxCell id="-XH-i8WMADYhDzxLogL1-91" value="rdfs:Literal" style="rounded=0;whiteSpace=wrap;html=1;fontStyle=0;fillColor=#f5f5f5;fontColor=#333333;strokeColor=#666666;" parent="1" vertex="1">
          <mxGeometry x="1450" y="1460" width="120" height="20" as="geometry" />
        </mxCell>
        <mxCell id="-XH-i8WMADYhDzxLogL1-92" style="edgeStyle=orthogonalEdgeStyle;rounded=0;orthogonalLoop=1;jettySize=auto;html=1;exitX=0.5;exitY=1;exitDx=0;exitDy=0;entryX=0.508;entryY=-0.035;entryDx=0;entryDy=0;entryPerimeter=0;dashed=1;" parent="1" source="-XH-i8WMADYhDzxLogL1-96" target="-XH-i8WMADYhDzxLogL1-89" edge="1">
          <mxGeometry relative="1" as="geometry">
            <mxPoint x="1602.5" y="1385" as="targetPoint" />
          </mxGeometry>
        </mxCell>
        <mxCell id="-XH-i8WMADYhDzxLogL1-93" value="prov:generated&lt;div&gt;prov:wasGeneratedBy&lt;/div&gt;" style="edgeLabel;html=1;align=center;verticalAlign=middle;resizable=0;points=[];" parent="-XH-i8WMADYhDzxLogL1-92" vertex="1" connectable="0">
          <mxGeometry x="0.0858" relative="1" as="geometry">
            <mxPoint as="offset" />
          </mxGeometry>
        </mxCell>
        <mxCell id="-XH-i8WMADYhDzxLogL1-94" style="edgeStyle=orthogonalEdgeStyle;rounded=0;orthogonalLoop=1;jettySize=auto;html=1;exitX=0.5;exitY=0;exitDx=0;exitDy=0;entryX=0;entryY=0.5;entryDx=0;entryDy=0;curved=1;dashed=1;" parent="1" source="-XH-i8WMADYhDzxLogL1-96" target="-XH-i8WMADYhDzxLogL1-109" edge="1">
          <mxGeometry relative="1" as="geometry" />
        </mxCell>
        <mxCell id="-XH-i8WMADYhDzxLogL1-95" value="ssn:forProperty (optional)" style="edgeLabel;html=1;align=center;verticalAlign=middle;resizable=0;points=[];" parent="-XH-i8WMADYhDzxLogL1-94" vertex="1" connectable="0">
          <mxGeometry x="0.1947" y="-3" relative="1" as="geometry">
            <mxPoint y="12" as="offset" />
          </mxGeometry>
        </mxCell>
        <mxCell id="-XH-i8WMADYhDzxLogL1-112" style="edgeStyle=orthogonalEdgeStyle;rounded=0;orthogonalLoop=1;jettySize=auto;html=1;exitX=0.5;exitY=0;exitDx=0;exitDy=0;entryX=0.5;entryY=1;entryDx=0;entryDy=0;dashed=1;" parent="1" source="-XH-i8WMADYhDzxLogL1-96" target="-XH-i8WMADYhDzxLogL1-110" edge="1">
          <mxGeometry relative="1" as="geometry" />
        </mxCell>
        <mxCell id="-XH-i8WMADYhDzxLogL1-114" style="edgeStyle=orthogonalEdgeStyle;rounded=0;orthogonalLoop=1;jettySize=auto;html=1;exitX=0.5;exitY=0;exitDx=0;exitDy=0;entryX=0.5;entryY=1;entryDx=0;entryDy=0;curved=1;dashed=1;" parent="1" source="-XH-i8WMADYhDzxLogL1-96" target="-XH-i8WMADYhDzxLogL1-111" edge="1">
          <mxGeometry relative="1" as="geometry" />
        </mxCell>
        <mxCell id="-XH-i8WMADYhDzxLogL1-115" value="dob:wasInformedByDeployment" style="edgeLabel;html=1;align=center;verticalAlign=middle;resizable=0;points=[];" parent="-XH-i8WMADYhDzxLogL1-114" vertex="1" connectable="0">
          <mxGeometry x="0.3003" y="-3" relative="1" as="geometry">
            <mxPoint x="-5" y="-12" as="offset" />
          </mxGeometry>
        </mxCell>
        <mxCell id="-XH-i8WMADYhDzxLogL1-117" style="edgeStyle=orthogonalEdgeStyle;rounded=0;orthogonalLoop=1;jettySize=auto;html=1;exitX=0;exitY=0.5;exitDx=0;exitDy=0;entryX=1;entryY=0.5;entryDx=0;entryDy=0;dashed=1;" parent="1" source="-XH-i8WMADYhDzxLogL1-96" target="-XH-i8WMADYhDzxLogL1-116" edge="1">
          <mxGeometry relative="1" as="geometry" />
        </mxCell>
        <mxCell id="-XH-i8WMADYhDzxLogL1-118" value="prov:used" style="edgeLabel;html=1;align=center;verticalAlign=middle;resizable=0;points=[];" parent="-XH-i8WMADYhDzxLogL1-117" vertex="1" connectable="0">
          <mxGeometry x="0.2019" relative="1" as="geometry">
            <mxPoint x="13" as="offset" />
          </mxGeometry>
        </mxCell>
        <mxCell id="-XH-i8WMADYhDzxLogL1-96" value="prov:Activity" style="rounded=0;whiteSpace=wrap;html=1;fontStyle=0;fillColor=#e1d5e7;strokeColor=#9673a6;" parent="1" vertex="1">
          <mxGeometry x="1542.5" y="1280" width="120" height="20" as="geometry" />
        </mxCell>
        <mxCell id="-XH-i8WMADYhDzxLogL1-106" value="skos:Concept" style="rounded=1;whiteSpace=wrap;html=1;fontStyle=0;fillColor=#FFFFCC;strokeColor=#d6b656;" parent="1" vertex="1">
          <mxGeometry x="2050" y="1215" width="140" height="20" as="geometry" />
        </mxCell>
        <mxCell id="-XH-i8WMADYhDzxLogL1-107" value="sosa:isFeatureOfInterestOf" style="edgeLabel;html=1;align=center;verticalAlign=middle;resizable=0;points=[];" parent="1" vertex="1" connectable="0">
          <mxGeometry x="1730" y="1325" as="geometry" />
        </mxCell>
        <mxCell id="-XH-i8WMADYhDzxLogL1-108" style="edgeStyle=orthogonalEdgeStyle;rounded=0;orthogonalLoop=1;jettySize=auto;html=1;exitX=1;exitY=0.5;exitDx=0;exitDy=0;strokeWidth=1;endSize=6;startSize=1;" parent="1" source="-XH-i8WMADYhDzxLogL1-109" target="-XH-i8WMADYhDzxLogL1-106" edge="1">
          <mxGeometry relative="1" as="geometry" />
        </mxCell>
        <mxCell id="-XH-i8WMADYhDzxLogL1-109" value="ssn:Property" style="rounded=1;whiteSpace=wrap;html=1;fontStyle=0;fillColor=#FFFFCC;strokeColor=#d6b656;" parent="1" vertex="1">
          <mxGeometry x="1817.5" y="1215" width="140" height="20" as="geometry" />
        </mxCell>
        <mxCell id="-XH-i8WMADYhDzxLogL1-110" value="dob:DataPoint" style="rounded=1;whiteSpace=wrap;html=1;fontStyle=0;fillColor=#FFFFCC;strokeColor=#d6b656;" parent="1" vertex="1">
          <mxGeometry x="1532.5" y="1110" width="140" height="20" as="geometry" />
        </mxCell>
        <mxCell id="-XH-i8WMADYhDzxLogL1-111" value="ssn:Deployment" style="rounded=0;whiteSpace=wrap;html=1;fontStyle=0;fillColor=#e1d5e7;strokeColor=#9673a6;" parent="1" vertex="1">
          <mxGeometry x="1350" y="1110" width="120" height="20" as="geometry" />
        </mxCell>
        <mxCell id="-XH-i8WMADYhDzxLogL1-113" value="dob:usedData" style="edgeLabel;html=1;align=center;verticalAlign=middle;resizable=0;points=[];" parent="1" vertex="1" connectable="0">
          <mxGeometry x="1607.497388151922" y="1175.00347826087" as="geometry" />
        </mxCell>
        <mxCell id="-XH-i8WMADYhDzxLogL1-116" value="prov:Plan" style="rounded=1;whiteSpace=wrap;html=1;fontStyle=0;fillColor=#FFFFCC;strokeColor=#d6b656;" parent="1" vertex="1">
          <mxGeometry x="1310" y="1280" width="140" height="20" as="geometry" />
        </mxCell>
        <mxCell id="-XH-i8WMADYhDzxLogL1-120" value="Building Elements and Topology" style="text;html=1;align=center;verticalAlign=middle;whiteSpace=wrap;rounded=0;fontStyle=1;fontSize=18;" parent="1" vertex="1">
          <mxGeometry x="100" y="1760" width="252.5" height="30" as="geometry" />
        </mxCell>
        <mxCell id="uDl1SkCYwepjSjY6q5aR-3" value="DOB Overview" style="text;html=1;align=center;verticalAlign=middle;whiteSpace=wrap;rounded=0;fontStyle=1;fontSize=18;" parent="1" vertex="1">
          <mxGeometry x="164.5" y="115" width="110" height="30" as="geometry" />
        </mxCell>
        <mxCell id="uDl1SkCYwepjSjY6q5aR-4" value="Zone Identifier and Location" style="text;html=1;align=center;verticalAlign=middle;whiteSpace=wrap;rounded=0;fontStyle=1;fontSize=18;" parent="1" vertex="1">
          <mxGeometry x="1280" y="1840" width="170" height="30" as="geometry" />
        </mxCell>
        <mxCell id="uDl1SkCYwepjSjY6q5aR-12" value="&lt;font style=&quot;font-size: 12px;&quot;&gt;did:zone_12345&lt;/font&gt;" style="verticalLabelPosition=middle;verticalAlign=middle;html=1;shape=mxgraph.basic.rect;fillColor2=none;strokeWidth=1;size=14.35;indent=5;fillStyle=auto;strokeColor=#CCCC00;fontFamily=Helvetica;fontSize=12;fontColor=default;fillColor=default;gradientDirection=half;topLeftStyle=rounded;topRightStyle=rounded;bottom=0;labelPosition=center;align=center;" parent="1" vertex="1">
          <mxGeometry x="1600" y="2040" width="170" height="20" as="geometry" />
        </mxCell>
        <mxCell id="uDl1SkCYwepjSjY6q5aR-13" value="bot:Zone" style="verticalLabelPosition=middle;verticalAlign=middle;html=1;shape=mxgraph.basic.rect;fillColor2=none;strokeWidth=1;size=20;indent=5;fillStyle=auto;strokeColor=#B09500;fontFamily=Helvetica;fontSize=12;fontColor=#000000;fillColor=#e3c800;gradientDirection=half;top=0;bottomRightStyle=rounded;bottomLeftStyle=rounded;labelPosition=center;align=center;fontStyle=0" parent="1" vertex="1">
          <mxGeometry x="1600" y="2080" width="170" height="20" as="geometry" />
        </mxCell>
        <mxCell id="uDl1SkCYwepjSjY6q5aR-14" value="sosa:FeatureOfInterest" style="verticalLabelPosition=middle;verticalAlign=middle;html=1;shape=mxgraph.basic.rect;fillColor2=none;strokeWidth=1;size=20;indent=5;fillStyle=auto;strokeColor=#d6b656;fontFamily=Helvetica;fontSize=12;fillColor=#FFFFCC;gradientDirection=half;top=0;bottomRightStyle=default;bottomLeftStyle=default;labelPosition=center;align=center;bottom=0;fontStyle=0;fontColor=#000000;" parent="1" vertex="1">
          <mxGeometry x="1600" y="2060" width="170" height="20" as="geometry" />
        </mxCell>
        <mxCell id="uDl1SkCYwepjSjY6q5aR-15" value="263814394" style="verticalLabelPosition=middle;verticalAlign=middle;html=1;shape=mxgraph.basic.rect;fillColor2=none;strokeWidth=1;size=20;indent=5;fillStyle=auto;fontFamily=Helvetica;fontSize=12;gradientDirection=half;top=1;bottomRightStyle=default;bottomLeftStyle=default;labelPosition=center;align=center;bottom=1;fillColor=#f5f5f5;fontColor=#333333;strokeColor=#666666;" parent="1" vertex="1">
          <mxGeometry x="1350" y="2060" width="120" height="20" as="geometry" />
        </mxCell>
        <mxCell id="uDl1SkCYwepjSjY6q5aR-16" value="" style="endArrow=classic;html=1;rounded=0;dashed=1;startArrow=none;startFill=0;dashPattern=1 2;" parent="1" edge="1">
          <mxGeometry width="50" height="50" relative="1" as="geometry">
            <mxPoint x="1600" y="2069.52" as="sourcePoint" />
            <mxPoint x="1470" y="2071" as="targetPoint" />
          </mxGeometry>
        </mxCell>
        <mxCell id="uDl1SkCYwepjSjY6q5aR-17" value="dob:hasUPRN" style="edgeLabel;html=1;align=center;verticalAlign=middle;resizable=0;points=[];" parent="uDl1SkCYwepjSjY6q5aR-16" vertex="1" connectable="0">
          <mxGeometry x="-0.0452" y="-2" relative="1" as="geometry">
            <mxPoint y="2" as="offset" />
          </mxGeometry>
        </mxCell>
        <mxCell id="uDl1SkCYwepjSjY6q5aR-18" style="edgeStyle=orthogonalEdgeStyle;rounded=0;orthogonalLoop=1;jettySize=auto;html=1;exitX=0.5;exitY=0;exitDx=0;exitDy=0;dashed=1;" parent="1" edge="1">
          <mxGeometry relative="1" as="geometry">
            <mxPoint x="1684.5" y="2040" as="sourcePoint" />
            <mxPoint x="1685" y="1930" as="targetPoint" />
          </mxGeometry>
        </mxCell>
        <mxCell id="uDl1SkCYwepjSjY6q5aR-19" value="within:outputarea" style="edgeLabel;html=1;align=center;verticalAlign=middle;resizable=0;points=[];" parent="uDl1SkCYwepjSjY6q5aR-18" vertex="1" connectable="0">
          <mxGeometry x="-0.2059" y="3" relative="1" as="geometry">
            <mxPoint as="offset" />
          </mxGeometry>
        </mxCell>
        <mxCell id="uDl1SkCYwepjSjY6q5aR-20" value="sid:E000023467" style="rounded=1;whiteSpace=wrap;html=1;fontStyle=0;" parent="1" vertex="1">
          <mxGeometry x="1625" y="1909" width="120" height="21" as="geometry" />
        </mxCell>
        <mxCell id="uDl1SkCYwepjSjY6q5aR-23" style="edgeStyle=orthogonalEdgeStyle;rounded=0;orthogonalLoop=1;jettySize=auto;html=1;exitX=0.5;exitY=0;exitDx=0;exitDy=0;entryX=0.5;entryY=1;entryDx=0;entryDy=0;dashed=1;" parent="1" source="uDl1SkCYwepjSjY6q5aR-27" target="uDl1SkCYwepjSjY6q5aR-48" edge="1">
          <mxGeometry relative="1" as="geometry" />
        </mxCell>
        <mxCell id="uDl1SkCYwepjSjY6q5aR-24" value="sosa:madeBySensor" style="edgeLabel;html=1;align=center;verticalAlign=middle;resizable=0;points=[];" parent="uDl1SkCYwepjSjY6q5aR-23" vertex="1" connectable="0">
          <mxGeometry x="-0.0422" relative="1" as="geometry">
            <mxPoint as="offset" />
          </mxGeometry>
        </mxCell>
        <mxCell id="uDl1SkCYwepjSjY6q5aR-25" style="edgeStyle=orthogonalEdgeStyle;rounded=0;orthogonalLoop=1;jettySize=auto;html=1;exitX=0;exitY=0.5;exitDx=0;exitDy=0;curved=1;dashed=1;" parent="1" source="uDl1SkCYwepjSjY6q5aR-27" edge="1">
          <mxGeometry relative="1" as="geometry">
            <mxPoint x="2790" y="519" as="targetPoint" />
          </mxGeometry>
        </mxCell>
        <mxCell id="uDl1SkCYwepjSjY6q5aR-58" value="prov:wasAssociatedWith" style="edgeLabel;html=1;align=center;verticalAlign=middle;resizable=0;points=[];" parent="uDl1SkCYwepjSjY6q5aR-25" vertex="1" connectable="0">
          <mxGeometry x="0.0041" y="2" relative="1" as="geometry">
            <mxPoint x="1" as="offset" />
          </mxGeometry>
        </mxCell>
        <mxCell id="uDl1SkCYwepjSjY6q5aR-26" style="edgeStyle=orthogonalEdgeStyle;rounded=0;orthogonalLoop=1;jettySize=auto;html=1;exitX=1;exitY=0.5;exitDx=0;exitDy=0;entryX=0;entryY=0.5;entryDx=0;entryDy=0;dashed=1;dashPattern=1 2;" parent="1" source="uDl1SkCYwepjSjY6q5aR-27" target="uDl1SkCYwepjSjY6q5aR-54" edge="1">
          <mxGeometry relative="1" as="geometry" />
        </mxCell>
        <mxCell id="uDl1SkCYwepjSjY6q5aR-76" style="edgeStyle=orthogonalEdgeStyle;rounded=0;orthogonalLoop=1;jettySize=auto;html=1;exitX=0;exitY=0;exitDx=0;exitDy=0;entryX=1;entryY=1;entryDx=0;entryDy=0;curved=1;dashed=1;" parent="1" source="uDl1SkCYwepjSjY6q5aR-27" target="uDl1SkCYwepjSjY6q5aR-52" edge="1">
          <mxGeometry relative="1" as="geometry" />
        </mxCell>
        <mxCell id="uDl1SkCYwepjSjY6q5aR-77" value="dob:wasInformedbyDeployment" style="edgeLabel;html=1;align=center;verticalAlign=middle;resizable=0;points=[];" parent="uDl1SkCYwepjSjY6q5aR-76" vertex="1" connectable="0">
          <mxGeometry x="0.0489" y="2" relative="1" as="geometry">
            <mxPoint as="offset" />
          </mxGeometry>
        </mxCell>
        <mxCell id="9Oqew1JKMZColQfG4jG8-5" style="edgeStyle=orthogonalEdgeStyle;rounded=0;orthogonalLoop=1;jettySize=auto;html=1;exitX=1;exitY=0;exitDx=0;exitDy=0;entryX=1;entryY=0.5;entryDx=0;entryDy=0;curved=1;dashed=1;" parent="1" source="uDl1SkCYwepjSjY6q5aR-27" target="uDl1SkCYwepjSjY6q5aR-65" edge="1">
          <mxGeometry relative="1" as="geometry">
            <Array as="points">
              <mxPoint x="3100" y="510" />
              <mxPoint x="3100" y="328" />
            </Array>
          </mxGeometry>
        </mxCell>
        <mxCell id="9Oqew1JKMZColQfG4jG8-8" value="dob:usedData" style="edgeLabel;html=1;align=center;verticalAlign=middle;resizable=0;points=[];" parent="9Oqew1JKMZColQfG4jG8-5" vertex="1" connectable="0">
          <mxGeometry x="0.2958" y="7" relative="1" as="geometry">
            <mxPoint as="offset" />
          </mxGeometry>
        </mxCell>
        <mxCell id="uDl1SkCYwepjSjY6q5aR-27" value="sosa:Observation" style="rounded=0;whiteSpace=wrap;html=1;fontStyle=0;fillColor=#e1d5e7;strokeColor=#9673a6;" parent="1" vertex="1">
          <mxGeometry x="2960" y="510" width="120" height="19" as="geometry" />
        </mxCell>
        <mxCell id="uDl1SkCYwepjSjY6q5aR-48" value="sosa:Sensor" style="rounded=1;whiteSpace=wrap;html=1;fontStyle=0;fillColor=#FFFFCC;strokeColor=#d6b656;" parent="1" vertex="1">
          <mxGeometry x="2960" y="400" width="120" height="19" as="geometry" />
        </mxCell>
        <mxCell id="uDl1SkCYwepjSjY6q5aR-50" style="edgeStyle=orthogonalEdgeStyle;rounded=0;orthogonalLoop=1;jettySize=auto;html=1;exitX=1;exitY=0.5;exitDx=0;exitDy=0;entryX=0;entryY=0.5;entryDx=0;entryDy=0;curved=1;dashed=1;" parent="1" source="uDl1SkCYwepjSjY6q5aR-52" target="uDl1SkCYwepjSjY6q5aR-48" edge="1">
          <mxGeometry relative="1" as="geometry">
            <Array as="points">
              <mxPoint x="2910" y="409" />
              <mxPoint x="2910" y="409" />
            </Array>
          </mxGeometry>
        </mxCell>
        <mxCell id="uDl1SkCYwepjSjY6q5aR-51" value="ssn:deployedSystem" style="edgeLabel;html=1;align=center;verticalAlign=middle;resizable=0;points=[];" parent="uDl1SkCYwepjSjY6q5aR-50" vertex="1" connectable="0">
          <mxGeometry x="0.0609" y="-4" relative="1" as="geometry">
            <mxPoint as="offset" />
          </mxGeometry>
        </mxCell>
        <mxCell id="uDl1SkCYwepjSjY6q5aR-59" style="edgeStyle=orthogonalEdgeStyle;rounded=0;orthogonalLoop=1;jettySize=auto;html=1;exitX=0.5;exitY=1;exitDx=0;exitDy=0;curved=1;dashed=1;" parent="1" source="uDl1SkCYwepjSjY6q5aR-52" edge="1">
          <mxGeometry relative="1" as="geometry">
            <mxPoint x="2730" y="509" as="targetPoint" />
          </mxGeometry>
        </mxCell>
        <mxCell id="uDl1SkCYwepjSjY6q5aR-60" value="dob:hadSoftwareAgent" style="edgeLabel;html=1;align=center;verticalAlign=middle;resizable=0;points=[];" parent="uDl1SkCYwepjSjY6q5aR-59" vertex="1" connectable="0">
          <mxGeometry x="-0.2097" y="1" relative="1" as="geometry">
            <mxPoint as="offset" />
          </mxGeometry>
        </mxCell>
        <mxCell id="uDl1SkCYwepjSjY6q5aR-61" style="edgeStyle=orthogonalEdgeStyle;rounded=0;orthogonalLoop=1;jettySize=auto;html=1;exitX=0.5;exitY=0;exitDx=0;exitDy=0;dashed=1;dashPattern=1 2;entryX=0.5;entryY=1;entryDx=0;entryDy=0;" parent="1" source="uDl1SkCYwepjSjY6q5aR-52" target="uDl1SkCYwepjSjY6q5aR-63" edge="1">
          <mxGeometry relative="1" as="geometry">
            <mxPoint x="2730.076923076923" y="329" as="targetPoint" />
          </mxGeometry>
        </mxCell>
        <mxCell id="uDl1SkCYwepjSjY6q5aR-62" value="prov:startedAtTime&lt;div&gt;prov:endedAtTime&lt;/div&gt;" style="edgeLabel;html=1;align=center;verticalAlign=middle;resizable=0;points=[];" parent="uDl1SkCYwepjSjY6q5aR-61" vertex="1" connectable="0">
          <mxGeometry x="-0.0051" y="-1" relative="1" as="geometry">
            <mxPoint x="-1" as="offset" />
          </mxGeometry>
        </mxCell>
        <mxCell id="9Oqew1JKMZColQfG4jG8-6" style="edgeStyle=orthogonalEdgeStyle;rounded=0;orthogonalLoop=1;jettySize=auto;html=1;exitX=1;exitY=0;exitDx=0;exitDy=0;entryX=0;entryY=0.5;entryDx=0;entryDy=0;curved=1;dashed=1;" parent="1" source="uDl1SkCYwepjSjY6q5aR-52" target="uDl1SkCYwepjSjY6q5aR-65" edge="1">
          <mxGeometry relative="1" as="geometry" />
        </mxCell>
        <mxCell id="9Oqew1JKMZColQfG4jG8-7" value="prov:generated" style="edgeLabel;html=1;align=center;verticalAlign=middle;resizable=0;points=[];" parent="9Oqew1JKMZColQfG4jG8-6" vertex="1" connectable="0">
          <mxGeometry x="0.0635" y="-14" relative="1" as="geometry">
            <mxPoint as="offset" />
          </mxGeometry>
        </mxCell>
        <mxCell id="uDl1SkCYwepjSjY6q5aR-52" value="ssn:Deployment" style="rounded=0;whiteSpace=wrap;html=1;fontStyle=0;fillColor=#e1d5e7;strokeColor=#9673a6;" parent="1" vertex="1">
          <mxGeometry x="2670" y="400.02" width="120" height="18.98" as="geometry" />
        </mxCell>
        <mxCell id="uDl1SkCYwepjSjY6q5aR-53" value="sosa:resultTime" style="edgeLabel;html=1;align=center;verticalAlign=middle;resizable=0;points=[];" parent="1" vertex="1" connectable="0">
          <mxGeometry x="3149.9965217391305" y="510.0000000000002" as="geometry" />
        </mxCell>
        <mxCell id="uDl1SkCYwepjSjY6q5aR-54" value="xsd:dateTime" style="rounded=0;whiteSpace=wrap;html=1;fontStyle=0;fillColor=#f5f5f5;fontColor=#333333;strokeColor=#666666;" parent="1" vertex="1">
          <mxGeometry x="3230.7" y="510" width="120" height="19" as="geometry" />
        </mxCell>
        <mxCell id="uDl1SkCYwepjSjY6q5aR-56" value="prov:SoftwareAgent" style="text;html=1;align=center;verticalAlign=middle;whiteSpace=wrap;rounded=0;fontStyle=0" parent="1" vertex="1">
          <mxGeometry x="2700" y="509" width="60" height="20" as="geometry" />
        </mxCell>
        <mxCell id="uDl1SkCYwepjSjY6q5aR-57" value="Sensor Metadata" style="text;html=1;align=center;verticalAlign=middle;whiteSpace=wrap;rounded=0;fontStyle=1;fontSize=18;" parent="1" vertex="1">
          <mxGeometry x="2450" y="210" width="180" height="30" as="geometry" />
        </mxCell>
        <mxCell id="uDl1SkCYwepjSjY6q5aR-63" value="xsd:dateTime" style="rounded=0;whiteSpace=wrap;html=1;fontStyle=0;fillColor=#f5f5f5;fontColor=#333333;strokeColor=#666666;" parent="1" vertex="1">
          <mxGeometry x="2670" y="300" width="120" height="19" as="geometry" />
        </mxCell>
        <mxCell id="uDl1SkCYwepjSjY6q5aR-65" value="dob:Bag" style="rounded=1;whiteSpace=wrap;html=1;fontStyle=0;fillColor=#FFFFCC;strokeColor=#d6b656;" parent="1" vertex="1">
          <mxGeometry x="2919.86" y="319" width="120" height="19" as="geometry" />
        </mxCell>
        <mxCell id="uDl1SkCYwepjSjY6q5aR-69" style="edgeStyle=orthogonalEdgeStyle;rounded=0;orthogonalLoop=1;jettySize=auto;html=1;exitX=0.5;exitY=0;exitDx=0;exitDy=0;entryX=0;entryY=0.5;entryDx=0;entryDy=0;curved=1;dashed=1;startArrow=classic;startFill=1;" parent="1" source="uDl1SkCYwepjSjY6q5aR-68" target="uDl1SkCYwepjSjY6q5aR-52" edge="1">
          <mxGeometry relative="1" as="geometry" />
        </mxCell>
        <mxCell id="uDl1SkCYwepjSjY6q5aR-70" value="ssn:inDeployment" style="edgeLabel;html=1;align=center;verticalAlign=middle;resizable=0;points=[];" parent="uDl1SkCYwepjSjY6q5aR-69" vertex="1" connectable="0">
          <mxGeometry x="0.1759" y="-6" relative="1" as="geometry">
            <mxPoint x="22" y="-3" as="offset" />
          </mxGeometry>
        </mxCell>
        <mxCell id="uDl1SkCYwepjSjY6q5aR-73" value="ssn:deployedOnPlatorm" style="edgeLabel;html=1;align=center;verticalAlign=middle;resizable=0;points=[];" parent="uDl1SkCYwepjSjY6q5aR-69" vertex="1" connectable="0">
          <mxGeometry x="-0.7821" y="-4" relative="1" as="geometry">
            <mxPoint x="6" y="2" as="offset" />
          </mxGeometry>
        </mxCell>
        <mxCell id="uDl1SkCYwepjSjY6q5aR-72" style="edgeStyle=orthogonalEdgeStyle;rounded=0;orthogonalLoop=1;jettySize=auto;html=1;exitX=0.5;exitY=1;exitDx=0;exitDy=0;entryX=0.5;entryY=0;entryDx=0;entryDy=0;" parent="1" source="uDl1SkCYwepjSjY6q5aR-68" target="uDl1SkCYwepjSjY6q5aR-71" edge="1">
          <mxGeometry relative="1" as="geometry" />
        </mxCell>
        <mxCell id="uDl1SkCYwepjSjY6q5aR-68" value="dob:Server" style="rounded=1;whiteSpace=wrap;html=1;fontStyle=0;fillColor=#FFFFCC;strokeColor=#d6b656;" parent="1" vertex="1">
          <mxGeometry x="2470" y="469" width="120" height="19" as="geometry" />
        </mxCell>
        <mxCell id="uDl1SkCYwepjSjY6q5aR-71" value="sosa:Platform" style="rounded=1;whiteSpace=wrap;html=1;fontStyle=0;fillColor=#FFFFCC;strokeColor=#d6b656;" parent="1" vertex="1">
          <mxGeometry x="2470" y="549" width="120" height="19" as="geometry" />
        </mxCell>
        <mxCell id="uDl1SkCYwepjSjY6q5aR-74" value="Software, Procedure and File Metadata" style="text;html=1;align=center;verticalAlign=middle;whiteSpace=wrap;rounded=0;fontStyle=1;fontSize=18;" parent="1" vertex="1">
          <mxGeometry x="2450" y="930" width="180" height="30" as="geometry" />
        </mxCell>
        <mxCell id="uDl1SkCYwepjSjY6q5aR-75" style="edgeStyle=orthogonalEdgeStyle;rounded=0;orthogonalLoop=1;jettySize=auto;html=1;exitX=0.5;exitY=1;exitDx=0;exitDy=0;" parent="1" source="uDl1SkCYwepjSjY6q5aR-74" target="uDl1SkCYwepjSjY6q5aR-74" edge="1">
          <mxGeometry relative="1" as="geometry" />
        </mxCell>
        <mxCell id="uDl1SkCYwepjSjY6q5aR-106" style="edgeStyle=orthogonalEdgeStyle;rounded=0;orthogonalLoop=1;jettySize=auto;html=1;exitX=1;exitY=0.5;exitDx=0;exitDy=0;entryX=0;entryY=0.5;entryDx=0;entryDy=0;dashed=1;dashPattern=1 2;" parent="1" source="uDl1SkCYwepjSjY6q5aR-81" target="uDl1SkCYwepjSjY6q5aR-105" edge="1">
          <mxGeometry relative="1" as="geometry" />
        </mxCell>
        <mxCell id="uDl1SkCYwepjSjY6q5aR-107" value="prov:endedAtTime" style="edgeLabel;html=1;align=center;verticalAlign=middle;resizable=0;points=[];" parent="uDl1SkCYwepjSjY6q5aR-106" vertex="1" connectable="0">
          <mxGeometry x="-0.0869" y="1" relative="1" as="geometry">
            <mxPoint as="offset" />
          </mxGeometry>
        </mxCell>
        <mxCell id="uDl1SkCYwepjSjY6q5aR-81" value="Commit" style="rounded=0;whiteSpace=wrap;html=1;fontStyle=0;fillColor=#e1d5e7;strokeColor=#9673a6;" parent="1" vertex="1">
          <mxGeometry x="2769.86" y="1220.07" width="120" height="19" as="geometry" />
        </mxCell>
        <mxCell id="uDl1SkCYwepjSjY6q5aR-83" value="&lt;font style=&quot;font-size: 12px;&quot;&gt;:PreviousFileRevision&lt;/font&gt;" style="verticalLabelPosition=middle;verticalAlign=middle;html=1;shape=mxgraph.basic.rect;fillColor2=none;strokeWidth=1;size=14.35;indent=5;fillStyle=auto;strokeColor=#CCCC00;fontFamily=Helvetica;fontSize=12;fontColor=default;fillColor=default;gradientDirection=half;topLeftStyle=rounded;topRightStyle=rounded;bottom=0;labelPosition=center;align=center;" parent="1" vertex="1">
          <mxGeometry x="2609.86" y="1295.07" width="120" height="20" as="geometry" />
        </mxCell>
        <mxCell id="uDl1SkCYwepjSjY6q5aR-84" value="FileRevision" style="verticalLabelPosition=middle;verticalAlign=middle;html=1;shape=mxgraph.basic.rect;fillColor2=none;strokeWidth=1;size=20;indent=5;fillStyle=auto;strokeColor=#B09500;fontFamily=Helvetica;fontSize=12;fontColor=#000000;fillColor=#FFFFCC;gradientDirection=half;top=0;bottomRightStyle=rounded;bottomLeftStyle=rounded;labelPosition=center;align=center;fontStyle=0" parent="1" vertex="1">
          <mxGeometry x="2609.86" y="1315.07" width="120" height="20" as="geometry" />
        </mxCell>
        <mxCell id="uDl1SkCYwepjSjY6q5aR-87" value="&lt;font style=&quot;font-size: 12px;&quot;&gt;:FileRevision&lt;/font&gt;" style="verticalLabelPosition=middle;verticalAlign=middle;html=1;shape=mxgraph.basic.rect;fillColor2=none;strokeWidth=1;size=14.35;indent=5;fillStyle=auto;strokeColor=#CCCC00;fontFamily=Helvetica;fontSize=12;fontColor=default;fillColor=default;gradientDirection=half;topLeftStyle=rounded;topRightStyle=rounded;bottom=0;labelPosition=center;align=center;shadow=0;" parent="1" vertex="1">
          <mxGeometry x="2879.86" y="1295.07" width="120" height="20" as="geometry" />
        </mxCell>
        <mxCell id="uDl1SkCYwepjSjY6q5aR-88" value="FileRevision" style="verticalLabelPosition=middle;verticalAlign=middle;html=1;shape=mxgraph.basic.rect;fillColor2=none;strokeWidth=1;size=20;indent=5;fillStyle=auto;strokeColor=#B09500;fontFamily=Helvetica;fontSize=12;fontColor=#000000;fillColor=#FFFFCC;gradientDirection=half;top=0;bottomRightStyle=rounded;bottomLeftStyle=rounded;labelPosition=center;align=center;fontStyle=0;" parent="1" vertex="1">
          <mxGeometry x="2879.86" y="1315.07" width="120" height="20" as="geometry" />
        </mxCell>
        <mxCell id="uDl1SkCYwepjSjY6q5aR-89" style="edgeStyle=orthogonalEdgeStyle;rounded=0;orthogonalLoop=1;jettySize=auto;html=1;entryX=0.219;entryY=0.07;entryDx=0;entryDy=0;entryPerimeter=0;curved=1;exitX=0.5;exitY=1;exitDx=0;exitDy=0;startArrow=classic;startFill=1;endArrow=none;endFill=0;dashed=1;" parent="1" source="uDl1SkCYwepjSjY6q5aR-81" target="uDl1SkCYwepjSjY6q5aR-87" edge="1">
          <mxGeometry relative="1" as="geometry">
            <mxPoint x="2749.86" y="1220.07" as="sourcePoint" />
          </mxGeometry>
        </mxCell>
        <mxCell id="uDl1SkCYwepjSjY6q5aR-90" value="prov:wasGeneratedBy" style="edgeLabel;html=1;align=center;verticalAlign=middle;resizable=0;points=[];" parent="uDl1SkCYwepjSjY6q5aR-89" vertex="1" connectable="0">
          <mxGeometry x="0.3943" y="6" relative="1" as="geometry">
            <mxPoint x="-25" y="9" as="offset" />
          </mxGeometry>
        </mxCell>
        <mxCell id="uDl1SkCYwepjSjY6q5aR-91" value="&lt;font style=&quot;font-size: 12px;&quot;&gt;:File&lt;/font&gt;" style="verticalLabelPosition=middle;verticalAlign=middle;html=1;shape=mxgraph.basic.rect;fillColor2=none;strokeWidth=1;size=14.35;indent=5;fillStyle=auto;strokeColor=#CCCC00;fontFamily=Helvetica;fontSize=12;fontColor=default;fillColor=default;gradientDirection=half;topLeftStyle=rounded;topRightStyle=rounded;bottom=0;labelPosition=center;align=center;" parent="1" vertex="1">
          <mxGeometry x="2609.86" y="1110.07" width="120" height="20" as="geometry" />
        </mxCell>
        <mxCell id="uDl1SkCYwepjSjY6q5aR-92" value="File" style="verticalLabelPosition=middle;verticalAlign=middle;html=1;shape=mxgraph.basic.rect;fillColor2=none;strokeWidth=1;size=20;indent=5;fillStyle=auto;strokeColor=#B09500;fontFamily=Helvetica;fontSize=12;fontColor=#000000;fillColor=#FFFFCC;gradientDirection=half;top=0;bottomRightStyle=rounded;bottomLeftStyle=rounded;labelPosition=center;align=center;fontStyle=0" parent="1" vertex="1">
          <mxGeometry x="2609.86" y="1130.07" width="120" height="20" as="geometry" />
        </mxCell>
        <mxCell id="uDl1SkCYwepjSjY6q5aR-93" style="edgeStyle=orthogonalEdgeStyle;rounded=0;orthogonalLoop=1;jettySize=auto;html=1;entryX=0.72;entryY=0.966;entryDx=0;entryDy=0;entryPerimeter=0;curved=1;startArrow=classic;startFill=1;endArrow=none;endFill=0;exitX=-0.004;exitY=0.343;exitDx=0;exitDy=0;exitPerimeter=0;dashed=1;" parent="1" source="uDl1SkCYwepjSjY6q5aR-92" target="uDl1SkCYwepjSjY6q5aR-88" edge="1">
          <mxGeometry relative="1" as="geometry">
            <mxPoint x="2759.86" y="1200.07" as="sourcePoint" />
            <mxPoint x="2811.86" y="1224.07" as="targetPoint" />
            <Array as="points">
              <mxPoint x="2529.86" y="1137.07" />
              <mxPoint x="2529.86" y="1390.07" />
              <mxPoint x="2965.86" y="1390.07" />
            </Array>
          </mxGeometry>
        </mxCell>
        <mxCell id="uDl1SkCYwepjSjY6q5aR-94" value="prov:specializationOf" style="edgeLabel;html=1;align=center;verticalAlign=middle;resizable=0;points=[];" parent="uDl1SkCYwepjSjY6q5aR-93" vertex="1" connectable="0">
          <mxGeometry x="0.3943" y="6" relative="1" as="geometry">
            <mxPoint x="-222" y="-194" as="offset" />
          </mxGeometry>
        </mxCell>
        <mxCell id="uDl1SkCYwepjSjY6q5aR-95" style="edgeStyle=orthogonalEdgeStyle;rounded=0;orthogonalLoop=1;jettySize=auto;html=1;entryX=0.505;entryY=0.005;entryDx=0;entryDy=0;entryPerimeter=0;curved=1;exitX=0.506;exitY=1.017;exitDx=0;exitDy=0;startArrow=classic;startFill=1;endArrow=none;endFill=0;exitPerimeter=0;dashed=1;" parent="1" source="uDl1SkCYwepjSjY6q5aR-92" target="uDl1SkCYwepjSjY6q5aR-83" edge="1">
          <mxGeometry relative="1" as="geometry">
            <mxPoint x="2409.86" y="1261.02" as="sourcePoint" />
            <mxPoint x="2679.86" y="1445.02" as="targetPoint" />
            <Array as="points" />
          </mxGeometry>
        </mxCell>
        <mxCell id="uDl1SkCYwepjSjY6q5aR-96" value="prov:specializationOf" style="edgeLabel;html=1;align=center;verticalAlign=middle;resizable=0;points=[];" parent="uDl1SkCYwepjSjY6q5aR-95" vertex="1" connectable="0">
          <mxGeometry x="0.3943" y="6" relative="1" as="geometry">
            <mxPoint y="-11" as="offset" />
          </mxGeometry>
        </mxCell>
        <mxCell id="uDl1SkCYwepjSjY6q5aR-97" style="edgeStyle=orthogonalEdgeStyle;rounded=0;orthogonalLoop=1;jettySize=auto;html=1;entryX=0;entryY=0.25;entryDx=0;entryDy=0;entryPerimeter=0;curved=1;startArrow=classic;startFill=1;endArrow=none;endFill=0;dashed=1;" parent="1" target="uDl1SkCYwepjSjY6q5aR-88" edge="1">
          <mxGeometry relative="1" as="geometry">
            <mxPoint x="2729.86" y="1320.07" as="sourcePoint" />
            <mxPoint x="2680.86" y="1305.07" as="targetPoint" />
            <Array as="points" />
          </mxGeometry>
        </mxCell>
        <mxCell id="uDl1SkCYwepjSjY6q5aR-98" value="prov:wasDerivedFrom" style="edgeLabel;html=1;align=center;verticalAlign=middle;resizable=0;points=[];" parent="uDl1SkCYwepjSjY6q5aR-97" vertex="1" connectable="0">
          <mxGeometry x="0.3943" y="6" relative="1" as="geometry">
            <mxPoint x="-24" y="1" as="offset" />
          </mxGeometry>
        </mxCell>
        <mxCell id="uDl1SkCYwepjSjY6q5aR-99" style="edgeStyle=orthogonalEdgeStyle;rounded=0;orthogonalLoop=1;jettySize=auto;html=1;exitX=0;exitY=0.5;exitDx=0;exitDy=0;entryX=0.909;entryY=1.113;entryDx=0;entryDy=0;entryPerimeter=0;startArrow=classic;startFill=1;endArrow=none;endFill=0;curved=1;dashed=1;" parent="1" source="uDl1SkCYwepjSjY6q5aR-86" target="uDl1SkCYwepjSjY6q5aR-92" edge="1">
          <mxGeometry relative="1" as="geometry">
            <mxPoint x="2729.86" y="1120.07" as="targetPoint" />
          </mxGeometry>
        </mxCell>
        <mxCell id="uDl1SkCYwepjSjY6q5aR-100" value="prov:wasGeneratedBy" style="edgeLabel;html=1;align=center;verticalAlign=middle;resizable=0;points=[];" parent="uDl1SkCYwepjSjY6q5aR-99" vertex="1" connectable="0">
          <mxGeometry x="0.1337" y="-1" relative="1" as="geometry">
            <mxPoint x="20" y="-20" as="offset" />
          </mxGeometry>
        </mxCell>
        <mxCell id="uDl1SkCYwepjSjY6q5aR-101" style="edgeStyle=orthogonalEdgeStyle;rounded=0;orthogonalLoop=1;jettySize=auto;html=1;exitX=0.25;exitY=1;exitDx=0;exitDy=0;entryX=0.753;entryY=-0.033;entryDx=0;entryDy=0;entryPerimeter=0;curved=1;dashed=1;" parent="1" source="uDl1SkCYwepjSjY6q5aR-81" target="uDl1SkCYwepjSjY6q5aR-83" edge="1">
          <mxGeometry relative="1" as="geometry">
            <Array as="points">
              <mxPoint x="2799.86" y="1260.07" />
              <mxPoint x="2699.86" y="1260.07" />
            </Array>
          </mxGeometry>
        </mxCell>
        <mxCell id="uDl1SkCYwepjSjY6q5aR-102" value="prov:used" style="edgeLabel;html=1;align=center;verticalAlign=middle;resizable=0;points=[];" parent="uDl1SkCYwepjSjY6q5aR-101" vertex="1" connectable="0">
          <mxGeometry x="0.7328" y="3" relative="1" as="geometry">
            <mxPoint x="47" y="-14" as="offset" />
          </mxGeometry>
        </mxCell>
        <mxCell id="uDl1SkCYwepjSjY6q5aR-105" value="xsd:dateTime" style="rounded=0;whiteSpace=wrap;html=1;fontStyle=0;fillColor=#f5f5f5;fontColor=#333333;strokeColor=#666666;" parent="1" vertex="1">
          <mxGeometry x="3039.86" y="1220.07" width="120" height="19" as="geometry" />
        </mxCell>
        <mxCell id="uDl1SkCYwepjSjY6q5aR-108" style="edgeStyle=orthogonalEdgeStyle;rounded=0;orthogonalLoop=1;jettySize=auto;html=1;exitX=1;exitY=0.5;exitDx=0;exitDy=0;entryX=0.5;entryY=1;entryDx=0;entryDy=0;curved=1;dashed=1;dashPattern=1 2;" parent="1" target="uDl1SkCYwepjSjY6q5aR-105" edge="1">
          <mxGeometry relative="1" as="geometry">
            <mxPoint x="2999.86" y="1314.51" as="sourcePoint" />
            <mxPoint x="3149.86" y="1314.51" as="targetPoint" />
          </mxGeometry>
        </mxCell>
        <mxCell id="uDl1SkCYwepjSjY6q5aR-109" value="prov:generatedAtTime" style="edgeLabel;html=1;align=center;verticalAlign=middle;resizable=0;points=[];" parent="uDl1SkCYwepjSjY6q5aR-108" vertex="1" connectable="0">
          <mxGeometry x="-0.0869" y="1" relative="1" as="geometry">
            <mxPoint x="-11" y="-14" as="offset" />
          </mxGeometry>
        </mxCell>
        <mxCell id="uDl1SkCYwepjSjY6q5aR-110" style="edgeStyle=orthogonalEdgeStyle;rounded=0;orthogonalLoop=1;jettySize=auto;html=1;exitX=1;exitY=0.5;exitDx=0;exitDy=0;entryX=0.5;entryY=0;entryDx=0;entryDy=0;curved=1;dashed=1;dashPattern=1 2;" parent="1" target="uDl1SkCYwepjSjY6q5aR-105" edge="1">
          <mxGeometry relative="1" as="geometry">
            <mxPoint x="2729.86" y="1129.3999999999999" as="sourcePoint" />
            <mxPoint x="2879.86" y="1129.3999999999999" as="targetPoint" />
          </mxGeometry>
        </mxCell>
        <mxCell id="uDl1SkCYwepjSjY6q5aR-111" value="prov:modifiedAtTime" style="edgeLabel;html=1;align=center;verticalAlign=middle;resizable=0;points=[];" parent="uDl1SkCYwepjSjY6q5aR-110" vertex="1" connectable="0">
          <mxGeometry x="-0.0869" y="1" relative="1" as="geometry">
            <mxPoint x="-10" y="11" as="offset" />
          </mxGeometry>
        </mxCell>
        <mxCell id="uDl1SkCYwepjSjY6q5aR-115" value="Sensor Metadata (optional)" style="rounded=0;whiteSpace=wrap;html=1;fillColor=none;" parent="1" vertex="1">
          <mxGeometry x="70" y="280" width="120" height="60" as="geometry" />
        </mxCell>
        <mxCell id="uDl1SkCYwepjSjY6q5aR-116" value="Dataset Metadata (optional)" style="rounded=0;whiteSpace=wrap;html=1;fillColor=none;" parent="1" vertex="1">
          <mxGeometry x="70" y="395" width="120" height="60" as="geometry" />
        </mxCell>
        <mxCell id="9Oqew1JKMZColQfG4jG8-1" value="File Metadata (optional)" style="rounded=0;whiteSpace=wrap;html=1;fillColor=none;" parent="1" vertex="1">
          <mxGeometry x="70" y="170" width="120" height="60" as="geometry" />
        </mxCell>
        <mxCell id="liaQvpi3vW3MpIqvQNq9-2" style="edgeStyle=orthogonalEdgeStyle;rounded=0;orthogonalLoop=1;jettySize=auto;html=1;exitX=0;exitY=0.5;exitDx=0;exitDy=0;entryX=1;entryY=0.5;entryDx=0;entryDy=0;dashed=1;" parent="1" source="liaQvpi3vW3MpIqvQNq9-4" target="liaQvpi3vW3MpIqvQNq9-5" edge="1">
          <mxGeometry relative="1" as="geometry" />
        </mxCell>
        <mxCell id="liaQvpi3vW3MpIqvQNq9-11" value="dob:usedProcedure" style="edgeLabel;html=1;align=center;verticalAlign=middle;resizable=0;points=[];" parent="liaQvpi3vW3MpIqvQNq9-2" vertex="1" connectable="0">
          <mxGeometry x="-0.1872" relative="1" as="geometry">
            <mxPoint as="offset" />
          </mxGeometry>
        </mxCell>
        <mxCell id="liaQvpi3vW3MpIqvQNq9-4" value="prov:Activity" style="rounded=0;whiteSpace=wrap;html=1;fontStyle=0;fillColor=#e1d5e7;strokeColor=#9673a6;" parent="1" vertex="1">
          <mxGeometry x="2879.86" y="1750" width="120" height="20" as="geometry" />
        </mxCell>
        <mxCell id="liaQvpi3vW3MpIqvQNq9-5" value="dob:SoftwarePipeline" style="rounded=1;whiteSpace=wrap;html=1;fontStyle=0;fillColor=#FFFFCC;strokeColor=#d6b656;" parent="1" vertex="1">
          <mxGeometry x="2540" y="1750" width="140" height="20" as="geometry" />
        </mxCell>
        <mxCell id="liaQvpi3vW3MpIqvQNq9-12" style="edgeStyle=orthogonalEdgeStyle;rounded=0;orthogonalLoop=1;jettySize=auto;html=1;exitX=0.5;exitY=1;exitDx=0;exitDy=0;dashed=1;entryX=0.5;entryY=1;entryDx=0;entryDy=0;" parent="1" source="liaQvpi3vW3MpIqvQNq9-5" target="liaQvpi3vW3MpIqvQNq9-14" edge="1">
          <mxGeometry relative="1" as="geometry">
            <mxPoint x="2720" y="1840" as="sourcePoint" />
            <mxPoint x="2610" y="1870" as="targetPoint" />
            <Array as="points">
              <mxPoint x="2610" y="1835" />
              <mxPoint x="2611" y="1835" />
            </Array>
          </mxGeometry>
        </mxCell>
        <mxCell id="liaQvpi3vW3MpIqvQNq9-13" value="dob:wasAuthoredBy" style="edgeLabel;html=1;align=center;verticalAlign=middle;resizable=0;points=[];" parent="liaQvpi3vW3MpIqvQNq9-12" vertex="1" connectable="0">
          <mxGeometry x="-0.1872" relative="1" as="geometry">
            <mxPoint as="offset" />
          </mxGeometry>
        </mxCell>
        <mxCell id="liaQvpi3vW3MpIqvQNq9-14" value="" style="shape=offPageConnector;whiteSpace=wrap;html=1;rotation=-180;fillColor=#ffe6cc;strokeColor=#d79b00;" parent="1" vertex="1">
          <mxGeometry x="2550" y="1900" width="120" height="20" as="geometry" />
        </mxCell>
        <mxCell id="liaQvpi3vW3MpIqvQNq9-15" value="prov:&lt;span style=&quot;background-color: transparent; color: light-dark(rgb(0, 0, 0), rgb(255, 255, 255));&quot;&gt;Agent&lt;/span&gt;" style="text;html=1;align=center;verticalAlign=middle;whiteSpace=wrap;rounded=0;fontStyle=0" parent="1" vertex="1">
          <mxGeometry x="2580" y="1902" width="60" height="20" as="geometry" />
        </mxCell>
        <mxCell id="liaQvpi3vW3MpIqvQNq9-18" style="edgeStyle=orthogonalEdgeStyle;rounded=0;orthogonalLoop=1;jettySize=auto;html=1;exitX=0.5;exitY=0;exitDx=0;exitDy=0;dashed=1;entryX=0.5;entryY=1;entryDx=0;entryDy=0;" parent="1" source="liaQvpi3vW3MpIqvQNq9-5" target="liaQvpi3vW3MpIqvQNq9-20" edge="1">
          <mxGeometry relative="1" as="geometry">
            <mxPoint x="2750" y="1620" as="sourcePoint" />
            <mxPoint x="2600" y="1640" as="targetPoint" />
          </mxGeometry>
        </mxCell>
        <mxCell id="liaQvpi3vW3MpIqvQNq9-19" value="dob:hasRepository" style="edgeLabel;html=1;align=center;verticalAlign=middle;resizable=0;points=[];" parent="liaQvpi3vW3MpIqvQNq9-18" vertex="1" connectable="0">
          <mxGeometry x="-0.1872" relative="1" as="geometry">
            <mxPoint as="offset" />
          </mxGeometry>
        </mxCell>
        <mxCell id="liaQvpi3vW3MpIqvQNq9-20" value="dob:GitRepository" style="rounded=1;whiteSpace=wrap;html=1;fontStyle=0;fillColor=#FFFFCC;strokeColor=#d6b656;" parent="1" vertex="1">
          <mxGeometry x="2540" y="1640" width="140" height="20" as="geometry" />
        </mxCell>
        <mxCell id="liaQvpi3vW3MpIqvQNq9-21" value="xsd:string" style="rounded=1;whiteSpace=wrap;html=1;fontStyle=0;fillColor=#f5f5f5;strokeColor=#666666;arcSize=0;fontColor=#333333;" parent="1" vertex="1">
          <mxGeometry x="2790" y="1640" width="140" height="20" as="geometry" />
        </mxCell>
        <mxCell id="liaQvpi3vW3MpIqvQNq9-23" style="edgeStyle=orthogonalEdgeStyle;rounded=0;orthogonalLoop=1;jettySize=auto;html=1;exitX=1;exitY=0.5;exitDx=0;exitDy=0;dashed=1;entryX=0;entryY=0.5;entryDx=0;entryDy=0;" parent="1" source="liaQvpi3vW3MpIqvQNq9-20" target="liaQvpi3vW3MpIqvQNq9-21" edge="1">
          <mxGeometry relative="1" as="geometry">
            <mxPoint x="2950" y="1690" as="sourcePoint" />
            <mxPoint x="2950" y="1600" as="targetPoint" />
          </mxGeometry>
        </mxCell>
        <mxCell id="liaQvpi3vW3MpIqvQNq9-24" value="dob:usedCommit" style="edgeLabel;html=1;align=center;verticalAlign=middle;resizable=0;points=[];" parent="liaQvpi3vW3MpIqvQNq9-23" vertex="1" connectable="0">
          <mxGeometry x="-0.1872" relative="1" as="geometry">
            <mxPoint as="offset" />
          </mxGeometry>
        </mxCell>
        <mxCell id="4ikJTg7U5teDAXS3EL9x-5" value="ssn:hasProperty" style="edgeLabel;html=1;align=center;verticalAlign=middle;resizable=0;points=[];" vertex="1" connectable="0" parent="1">
          <mxGeometry x="1965" y="527.0033333333336" as="geometry" />
        </mxCell>
        <mxCell id="4ikJTg7U5teDAXS3EL9x-7" value="ssn:forProperty" style="edgeLabel;html=1;align=center;verticalAlign=middle;resizable=0;points=[];" vertex="1" connectable="0" parent="1">
          <mxGeometry x="1832.4966565656573" y="540" as="geometry" />
        </mxCell>
        <mxCell id="4ikJTg7U5teDAXS3EL9x-8" value="ssn:Property" style="rounded=1;whiteSpace=wrap;html=1;fontStyle=0;fillColor=#FFFFCC;strokeColor=#d6b656;" vertex="1" parent="1">
          <mxGeometry x="1894.9999999999998" y="568" width="140" height="20" as="geometry" />
        </mxCell>
        <mxCell id="4ikJTg7U5teDAXS3EL9x-9" style="edgeStyle=orthogonalEdgeStyle;rounded=0;orthogonalLoop=1;jettySize=auto;html=1;exitX=0.5;exitY=1;exitDx=0;exitDy=0;entryX=0.5;entryY=0;entryDx=0;entryDy=0;dashed=1;" edge="1" parent="1" source="-XH-i8WMADYhDzxLogL1-21" target="4ikJTg7U5teDAXS3EL9x-8">
          <mxGeometry relative="1" as="geometry">
            <mxPoint x="1920" y="557.98" as="sourcePoint" />
            <mxPoint x="1790" y="558.48" as="targetPoint" />
          </mxGeometry>
        </mxCell>
        <mxCell id="4ikJTg7U5teDAXS3EL9x-11" style="edgeStyle=orthogonalEdgeStyle;rounded=0;orthogonalLoop=1;jettySize=auto;html=1;entryX=0;entryY=0.5;entryDx=0;entryDy=0;curved=1;dashed=1;" edge="1" parent="1" source="-XH-i8WMADYhDzxLogL1-34" target="4ikJTg7U5teDAXS3EL9x-8">
          <mxGeometry relative="1" as="geometry">
            <mxPoint x="1690" y="509" as="sourcePoint" />
            <mxPoint x="1783" y="630" as="targetPoint" />
          </mxGeometry>
        </mxCell>
        <mxCell id="4ikJTg7U5teDAXS3EL9x-13" value="prov:used" style="edgeLabel;html=1;align=center;verticalAlign=middle;resizable=0;points=[];" vertex="1" connectable="0" parent="1">
          <mxGeometry x="1560" y="480.00333333333356" as="geometry" />
        </mxCell>
      </root>
    </mxGraphModel>
  </diagram>
</mxfile>
